<svg width="22" height="22" viewBox="0 0 17 26" fill="none" xmlns="http://www.w3.org/2000/svg">
<path d="M1.50374 25.7058C2.13702 25.7058 2.53803 25.3755 3.5421 24.3961L8.06929 19.9202C8.12577 19.8637 8.22491 19.8637 8.27179 19.9202L12.8011 24.3982C13.8073 25.3776 14.2019 25.7058 14.8373 25.7058C15.768 25.7058 16.3411 25.0783 16.3411 24.0272V3.58851C16.3411 1.26492 15.1308 0.0375061 12.8285 0.0375061H3.51257C1.2082 0.0375061 0 1.26492 0 3.58851V24.0272C0 25.0783 0.573042 25.7058 1.50374 25.7058ZM2.61444 21.9047C2.45459 22.0645 2.27131 22.0134 2.27131 21.7875V3.7132C2.27131 2.7771 2.7417 2.30882 3.69491 2.30882H12.6558C13.5994 2.30882 14.0698 2.7771 14.0698 3.7132V21.7875C14.0698 22.0134 13.894 22.0645 13.7266 21.9047L8.93506 17.2591C8.44827 16.7904 7.8928 16.7904 7.40601 17.2591L2.61444 21.9047Z" fill="black"/>
</svg>
