<svg width="282" height="336" viewBox="0 0 282 336" fill="none" xmlns="http://www.w3.org/2000/svg">
<path d="M247.378 20.5215L212.758 85.4861C197.776 77.1681 180.828 73.1979 163.783 74.0112C146.738 74.8245 130.263 80.3912 116.176 90.0956C102.09 99.8 90.9399 113.262 83.9618 128.999C76.9835 144.735 74.4476 162.129 76.6333 179.26C78.8185 196.391 85.641 212.592 96.3465 226.072C107.052 239.551 121.223 249.786 137.295 255.643C153.367 261.5 170.713 262.752 187.416 259.261C204.119 255.77 219.53 247.671 231.943 235.86L281.787 290.004C252.856 317.18 215.335 333.111 175.847 334.986C136.36 336.861 97.4441 324.561 65.9695 300.255C48.6112 286.851 34.0454 270.101 23.118 250.977C12.1906 231.853 5.11868 210.736 2.31233 188.85C-0.49402 166.964 1.02106 144.746 6.77008 123.485C12.5189 102.223 22.3868 82.3363 35.802 64.9898C60.1462 33.4961 94.738 11.756 133.463 3.62094C172.188 -4.51416 212.55 1.4756 247.415 20.5295" fill="url(#paint0_linear_4974_34532)"/>
<defs>
<linearGradient id="paint0_linear_4974_34532" x1="51.7495" y1="207.998" x2="262.749" y2="267.998" gradientUnits="userSpaceOnUse">
<stop stop-color="#F9F9F9"/>
<stop offset="1" stop-color="#F5F4F4" stop-opacity="0"/>
</linearGradient>
</defs>
</svg>
