<svg width="31" height="26" viewBox="0 0 31 26" fill="none" xmlns="http://www.w3.org/2000/svg">
<path d="M0.341064 16.2044C0.341064 18.6853 1.63606 19.9802 4.15514 19.9802H4.72022V11.7782C4.72022 8.35293 6.78212 6.3101 10.2339 6.3101H11.8542C12.1268 6.3101 12.21 6.27428 12.3972 6.08383L13.2436 5.28228C14.2052 4.35491 15.2363 3.93099 16.5815 3.93099H20.8248C22.1892 3.93099 23.2509 4.36235 24.1913 5.31087L24.7459 5.86385C24.8327 5.9464 24.9268 6.06174 24.9966 6.09453V4.35211C24.9966 1.86908 23.6921 0.576172 21.19 0.576172H4.15514C1.63606 0.576172 0.341064 1.86908 0.341064 4.35211V16.2044Z" fill="#4DBA66" fill-opacity="0.5"/>
<path d="M10.2338 25.5081H27.1702C29.6818 25.5081 30.9768 24.213 30.9768 21.7321V11.7784C30.9768 9.29529 29.6818 8.01192 27.1702 8.01192H25.5424C24.6683 8.01192 24.3883 7.90937 23.8737 7.38802L22.9947 6.5125C22.3766 5.88442 21.7609 5.63281 20.8247 5.63281H16.5813C15.6356 5.63281 15.0505 5.89396 14.4017 6.5125L13.4826 7.38802C12.9584 7.87123 12.7281 8.01192 11.8541 8.01192H10.2338C7.71468 8.01192 6.41968 9.29529 6.41968 11.7784V21.7321C6.41968 24.213 7.71468 25.5081 10.2338 25.5081ZM18.6586 21.8446C15.5719 21.8446 13.0815 19.3542 13.0815 16.258C13.0815 13.1808 15.5719 10.6807 18.6586 10.6807C21.7337 10.6807 24.2338 13.1808 24.2338 16.258C24.2338 19.3542 21.7337 21.8446 18.6586 21.8446ZM18.6586 19.8167C20.6115 19.8167 22.2004 18.2204 22.2004 16.2559C22.2004 14.3009 20.6115 12.7141 18.6586 12.7141C16.7036 12.7141 15.1052 14.3009 15.1052 16.2559C15.1052 18.2204 16.7036 19.8167 18.6586 19.8167ZM25.7766 13.6256C25.0369 13.6256 24.4409 13.0296 24.4409 12.292C24.4409 11.5523 25.0369 10.9446 25.7766 10.9446C26.5163 10.9446 27.1239 11.5523 27.1239 12.292C27.1239 13.0296 26.5163 13.6256 25.7766 13.6256Z" fill="#4DBA66"/>
</svg>
