<svg width="39" height="33" viewBox="0 0 39 33" fill="none" xmlns="http://www.w3.org/2000/svg">
<g filter="url(#filter0_d_180_16094)">
<path d="M4 15.6516C4 18.1325 5.295 19.4275 7.81408 19.4275H8.37915V11.2255C8.37915 7.80019 10.4411 5.75736 13.8928 5.75736H15.5131C15.7857 5.75736 15.8689 5.72154 16.0562 5.5311L16.9026 4.72954C17.8642 3.80218 18.8952 3.37826 20.2404 3.37826H24.4838C25.8481 3.37826 26.9098 3.80962 27.8503 4.75813L28.4048 5.31112C28.4916 5.39366 28.5858 5.509 28.6555 5.54179V3.79938C28.6555 1.31635 27.351 0.0234375 24.8489 0.0234375H7.81408C5.295 0.0234375 4 1.31635 4 3.79938V15.6516Z" fill="#1C1C1E" fill-opacity="0.5"/>
<path d="M13.8927 24.9554H30.8291C33.3407 24.9554 34.6357 23.6603 34.6357 21.1794V11.2256C34.6357 8.74255 33.3407 7.45918 30.8291 7.45918H29.2013C28.3273 7.45918 28.0473 7.35663 27.5326 6.83528L26.6537 5.95977C26.0356 5.33169 25.4198 5.08008 24.4836 5.08008H20.2402C19.2945 5.08008 18.7094 5.34123 18.0607 5.95977L17.1415 6.83528C16.6174 7.31849 16.3871 7.45918 15.513 7.45918H13.8927C11.3736 7.45918 10.0786 8.74255 10.0786 11.2256V21.1794C10.0786 23.6603 11.3736 24.9554 13.8927 24.9554ZM22.3175 21.2919C19.2308 21.2919 16.7404 18.8015 16.7404 15.7052C16.7404 12.628 19.2308 10.128 22.3175 10.128C25.3926 10.128 27.8927 12.628 27.8927 15.7052C27.8927 18.8015 25.3926 21.2919 22.3175 21.2919ZM22.3175 19.264C24.2704 19.264 25.8594 17.6676 25.8594 15.7031C25.8594 13.7482 24.2704 12.1613 22.3175 12.1613C20.3626 12.1613 18.7641 13.7482 18.7641 15.7031C18.7641 17.6676 20.3626 19.264 22.3175 19.264ZM29.4355 13.0728C28.6958 13.0728 28.0998 12.4768 28.0998 11.7393C28.0998 10.9996 28.6958 10.3919 29.4355 10.3919C30.1753 10.3919 30.7829 10.9996 30.7829 11.7393C30.7829 12.4768 30.1753 13.0728 29.4355 13.0728Z" fill="#1C1C1E"/>
</g>
<defs>
<filter id="filter0_d_180_16094" x="0" y="0.0234375" width="38.6357" height="32.9316" filterUnits="userSpaceOnUse" color-interpolation-filters="sRGB">
<feFlood flood-opacity="0" result="BackgroundImageFix"/>
<feColorMatrix in="SourceAlpha" type="matrix" values="0 0 0 0 0 0 0 0 0 0 0 0 0 0 0 0 0 0 127 0" result="hardAlpha"/>
<feOffset dy="4"/>
<feGaussianBlur stdDeviation="2"/>
<feComposite in2="hardAlpha" operator="out"/>
<feColorMatrix type="matrix" values="0 0 0 0 0 0 0 0 0 0 0 0 0 0 0 0 0 0 0.25 0"/>
<feBlend mode="normal" in2="BackgroundImageFix" result="effect1_dropShadow_180_16094"/>
<feBlend mode="normal" in="SourceGraphic" in2="effect1_dropShadow_180_16094" result="shape"/>
</filter>
</defs>
</svg>
