<svg width="27" height="27" viewBox="0 0 27 27" fill="none" xmlns="http://www.w3.org/2000/svg">
<path d="M6.31151 23.6505H8.82495C9.04667 23.6505 9.20769 23.7145 9.37292 23.8797L11.1565 25.6516C12.6774 27.1842 14.1096 27.1745 15.6305 25.6516L17.4141 23.8797C17.5889 23.7145 17.7403 23.6505 17.9717 23.6505H20.4755C22.6343 23.6505 23.6492 22.641 23.6492 20.4747V17.9709C23.6492 17.7417 23.7153 17.5881 23.8805 17.4133L25.6524 15.6318C27.1828 14.111 27.1732 12.6787 25.6524 11.1557L23.8805 9.37424C23.7132 9.20901 23.6492 9.04799 23.6492 8.82627V6.31283C23.6492 4.16362 22.6397 3.13916 20.4755 3.13916H17.9717C17.7403 3.13916 17.5868 3.08268 17.4141 2.91745L15.6305 1.14557C14.1075 -0.387007 12.6774 -0.377398 11.1565 1.14768L9.37292 2.91745C9.2098 3.08268 9.04667 3.13916 8.82495 3.13916H6.31151C4.15269 3.13916 3.13784 4.14229 3.13784 6.31283V8.82627C3.13784 9.04799 3.08136 9.21112 2.91613 9.37424L1.14425 11.1557C-0.386217 12.6787 -0.376608 14.111 1.14425 15.6318L2.91613 17.4133C3.08136 17.5881 3.13784 17.7417 3.13784 17.9709V20.4747C3.13784 22.6335 4.1548 23.6505 6.31151 23.6505Z" fill="black"/>
<path d="M12.0922 19.1753C11.6495 19.1753 11.2897 18.9935 10.9619 18.5685L8.09006 15.0752C7.88053 14.807 7.77295 14.527 7.77295 14.2396C7.77295 13.6331 8.24639 13.1489 8.85084 13.1489C9.21271 13.1489 9.49373 13.2829 9.79513 13.6696L12.0538 16.5375L16.8974 8.77893C17.1538 8.36924 17.4859 8.16815 17.8551 8.16815C18.4286 8.16815 18.9681 8.57877 18.9681 9.18322C18.9681 9.4633 18.8263 9.7497 18.6625 10.0094L13.1779 18.5601C12.9107 18.9604 12.5308 19.1753 12.0922 19.1753Z" fill="white"/>
</svg>
