<svg width="28" height="28" viewBox="0 0 28 28" fill="none" xmlns="http://www.w3.org/2000/svg">
<path d="M5.37521 23.5122C5.8845 24.0098 6.74348 24.0034 7.2284 23.5185L14.4373 16.3096L21.642 23.5164C22.1354 24.0098 22.9934 24.0173 23.4931 23.5101C23.9928 23.0008 23.9949 22.162 23.5015 21.6665L16.2968 14.4501L23.5015 7.24538C23.9949 6.75203 24.0024 5.9036 23.4931 5.40392C22.9838 4.89462 22.1354 4.89251 21.642 5.39548L14.4373 12.6002L7.2284 5.39337C6.74348 4.90095 5.87489 4.8829 5.37521 5.40181C4.87764 5.9111 4.88396 6.75835 5.36888 7.24327L12.5778 14.4501L5.36888 21.6707C4.88396 22.1535 4.86803 23.0125 5.37521 23.5122Z" fill="black"/>
</svg>
