<svg width="29" height="26" viewBox="0 0 29 26" fill="none" xmlns="http://www.w3.org/2000/svg">
<path d="M17.1572 25.2619H26.0529C27.4411 25.2619 28.2902 24.3328 28.2902 22.8316V8.28773C28.2902 6.78657 27.4411 5.85962 26.0529 5.85962H17.9925V8.13023H25.4107C25.8192 8.13023 26.0175 8.33812 26.0175 8.74663V22.3748C26.0175 22.7813 25.8192 22.9891 25.4107 22.9891H17.1572V25.2619ZM21.7183 12.5538H23.5713C23.7994 12.5538 23.9592 12.394 23.9592 12.1638V10.3652C23.9592 10.1351 23.7994 9.97523 23.5713 9.97523H21.7183C21.4807 9.97523 21.3401 10.1351 21.3401 10.3652V12.1638C21.3401 12.394 21.4807 12.5538 21.7183 12.5538ZM21.7183 16.8848H23.5713C23.7994 16.8848 23.9592 16.725 23.9592 16.4948V14.6941C23.9592 14.464 23.7994 14.3041 23.5713 14.3041H21.7183C21.4807 14.3041 21.3401 14.464 21.3401 14.6941V16.4948C21.3401 16.725 21.4807 16.8848 21.7183 16.8848ZM21.7183 21.2137H23.5713C23.7994 21.2137 23.9592 21.0539 23.9592 20.8237V19.0252C23.9592 18.795 23.7994 18.6352 23.5713 18.6352H21.7183C21.4807 18.6352 21.3401 18.795 21.3401 19.0252V20.8237C21.3401 21.0539 21.4807 21.2137 21.7183 21.2137Z" fill="black"/>
<path d="M0 22.8316C0 24.3328 0.849137 25.2619 2.24694 25.2619H17.0327C18.423 25.2619 19.2722 24.3328 19.2722 22.8316V2.44194C19.2722 0.940777 18.423 0.0117188 17.0327 0.0117188H2.24694C0.849137 0.0117188 0 0.940777 0 2.44194V22.8316ZM2.27483 22.3748V2.90085C2.27483 2.48272 2.47311 2.28444 2.88913 2.28444H16.3905C16.7991 2.28444 16.9973 2.48272 16.9973 2.90085V22.3748C16.9973 22.7813 16.7991 22.9891 16.3905 22.9891H2.88913C2.47311 22.9891 2.27483 22.7813 2.27483 22.3748ZM5.4546 24.078H7.23233V20.1893C7.23233 19.9537 7.35912 19.8269 7.59467 19.8269H11.6796C11.9226 19.8269 12.0419 19.9537 12.0419 20.1893V24.078H13.8197V19.5891C13.8197 18.5939 13.3512 18.0977 12.4029 18.0977H6.8714C5.92312 18.0977 5.4546 18.5939 5.4546 19.5891V24.078ZM5.79819 7.34858H8.03694C8.31186 7.34858 8.50686 7.1653 8.50686 6.87866V4.70389C8.50686 4.42475 8.31186 4.23186 8.03694 4.23186H5.79819C5.52327 4.23186 5.34959 4.42475 5.34959 4.70389V6.87866C5.34959 7.1653 5.52327 7.34858 5.79819 7.34858ZM11.2373 7.34858H13.4665C13.7414 7.34858 13.9343 7.1653 13.9343 6.87866V4.70389C13.9343 4.42475 13.7414 4.23186 13.4665 4.23186H11.2373C10.9528 4.23186 10.777 4.42475 10.777 4.70389V6.87866C10.777 7.1653 10.9528 7.34858 11.2373 7.34858ZM5.79819 11.8437H8.03694C8.31186 11.8437 8.50686 11.6604 8.50686 11.3737V9.19687C8.50686 8.91983 8.31186 8.72694 8.03694 8.72694H5.79819C5.52327 8.72694 5.34959 8.91983 5.34959 9.19687V11.3737C5.34959 11.6604 5.52327 11.8437 5.79819 11.8437ZM11.2373 11.8437H13.4665C13.7414 11.8437 13.9343 11.6604 13.9343 11.3737V9.19687C13.9343 8.91983 13.7414 8.72694 13.4665 8.72694H11.2373C10.9528 8.72694 10.777 8.91983 10.777 9.19687V11.3737C10.777 11.6604 10.9528 11.8437 11.2373 11.8437ZM5.79819 16.3387H8.03694C8.31186 16.3387 8.50686 16.1437 8.50686 15.8667V13.6919C8.50686 13.4053 8.31186 13.2199 8.03694 13.2199H5.79819C5.52327 13.2199 5.34959 13.4053 5.34959 13.6919V15.8667C5.34959 16.1437 5.52327 16.3387 5.79819 16.3387ZM11.2373 16.3387H13.4665C13.7414 16.3387 13.9343 16.1437 13.9343 15.8667V13.6919C13.9343 13.4053 13.7414 13.2199 13.4665 13.2199H11.2373C10.9528 13.2199 10.777 13.4053 10.777 13.6919V15.8667C10.777 16.1437 10.9528 16.3387 11.2373 16.3387Z" fill="black"/>
</svg>
