<svg width="29" height="26" viewBox="0 0 29 26" fill="none" xmlns="http://www.w3.org/2000/svg">
<path d="M19.46 25.2619H26.072C27.4602 25.2619 28.3114 24.3328 28.3114 22.8316V8.28773C28.3114 6.78657 27.4602 5.85962 26.072 5.85962H20.1334V22.8316C20.1334 23.7265 19.9121 24.5426 19.46 25.2619ZM22.8442 11.8926V10.0345C22.8442 9.78844 22.9965 9.62649 23.2459 9.62649H25.168C25.4099 9.62649 25.5718 9.78844 25.5718 10.0345V11.8926C25.5718 12.1387 25.4099 12.3082 25.168 12.3082H23.2459C22.9965 12.3082 22.8442 12.1387 22.8442 11.8926ZM22.8442 16.4887V14.6306C22.8442 14.3866 22.9965 14.2247 23.2459 14.2247H25.168C25.4099 14.2247 25.5718 14.3866 25.5718 14.6306V16.4887C25.5718 16.7348 25.4099 16.8968 25.168 16.8968H23.2459C22.9965 16.8968 22.8442 16.7348 22.8442 16.4887ZM22.8442 21.0848V19.2267C22.8442 18.9827 22.9965 18.8133 23.2459 18.8133H25.168C25.4099 18.8133 25.5718 18.9827 25.5718 19.2267V21.0848C25.5718 21.3309 25.4099 21.4929 25.168 21.4929H23.2459C22.9965 21.4929 22.8442 21.3309 22.8442 21.0848Z" fill="black"/>
<path d="M0 22.8316C0 24.3328 0.849137 25.2619 2.24694 25.2619H16.1714C17.5713 25.2619 18.4204 24.3328 18.4204 22.8316V2.44194C18.4204 0.940777 17.5713 0.0117188 16.1714 0.0117188H2.24694C0.849137 0.0117188 0 0.940777 0 2.44194V22.8316ZM5.06273 23.1832V19.4927C5.06273 18.9452 5.42062 18.5894 5.96812 18.5894H12.4903C13.0884 18.5894 13.4421 18.9452 13.4421 19.4927V23.1832H5.06273ZM4.7414 6.47132V4.2232C4.7414 3.93023 4.9289 3.72562 5.21554 3.72562H7.58038C7.86702 3.72562 8.07374 3.93023 8.07374 4.2232V6.47132C8.07374 6.7739 7.86702 6.96679 7.58038 6.96679H5.21554C4.9289 6.96679 4.7414 6.7739 4.7414 6.47132ZM10.4332 6.47132V4.2232C10.4332 3.93023 10.6207 3.72562 10.9169 3.72562H13.2722C13.5588 3.72562 13.7655 3.93023 13.7655 4.2232V6.47132C13.7655 6.7739 13.5588 6.96679 13.2722 6.96679H10.9169C10.6207 6.96679 10.4332 6.7739 10.4332 6.47132ZM4.7414 11.2568V9.00866C4.7414 8.7157 4.9289 8.50898 5.21554 8.50898H7.58038C7.86702 8.50898 8.07374 8.7157 8.07374 9.00866V11.2568C8.07374 11.5594 7.86702 11.7544 7.58038 11.7544H5.21554C4.9289 11.7544 4.7414 11.5594 4.7414 11.2568ZM10.4332 11.2568V9.00866C10.4332 8.7157 10.6207 8.50898 10.9169 8.50898H13.2722C13.5588 8.50898 13.7655 8.7157 13.7655 9.00866V11.2568C13.7655 11.5594 13.5588 11.7544 13.2722 11.7544H10.9169C10.6207 11.7544 10.4332 11.5594 10.4332 11.2568ZM4.7414 16.0423V13.792C4.7414 13.4916 4.9289 13.2966 5.21554 13.2966H7.58038C7.86702 13.2966 8.07374 13.4916 8.07374 13.792V16.0423C8.07374 16.3352 7.86702 16.5398 7.58038 16.5398H5.21554C4.9289 16.5398 4.7414 16.3352 4.7414 16.0423ZM10.4332 16.0423V13.792C10.4332 13.4916 10.6207 13.2966 10.9169 13.2966H13.2722C13.5588 13.2966 13.7655 13.4916 13.7655 13.792V16.0423C13.7655 16.3352 13.5588 16.5398 13.2722 16.5398H10.9169C10.6207 16.5398 10.4332 16.3352 10.4332 16.0423Z" fill="black"/>
</svg>
