<svg width="23" height="17" viewBox="0 0 23 17" fill="none" xmlns="http://www.w3.org/2000/svg">
<path opacity="0.8" d="M2.64646 12.6817C1.157 12.6817 0.365845 11.9162 0.365845 10.4152V5.13872H16.8836V10.4152C16.8836 11.9162 16.0924 12.6817 14.603 12.6817H2.64646ZM3.27105 10.4608H4.98869C5.39412 10.4608 5.67546 10.196 5.67546 9.80212V8.50398C5.67546 8.11013 5.39412 7.84531 4.98869 7.84531H3.27105C2.87717 7.84531 2.59581 8.11013 2.59581 8.50398V9.80212C2.59581 10.196 2.87717 10.4608 3.27105 10.4608ZM0.365845 3.49962V2.87531C0.365845 1.37431 1.157 0.6203 2.64646 0.6203H14.603C16.0924 0.6203 16.8836 1.38585 16.8836 2.87531V3.49962H0.365845Z" fill="white"/>
<path d="M15.8905 15.8933C19.0458 15.8933 21.6507 13.2848 21.6507 10.1341C21.6507 6.9789 19.0412 4.37497 15.8859 4.37497C12.7363 4.37497 10.1313 6.9789 10.1313 10.1341C10.1313 13.2848 12.7409 15.8933 15.8905 15.8933Z" fill="white" stroke="#A2DBAF" stroke-width="2"/>
<path d="M15.8933 7.16293C16.1949 7.16293 16.4135 7.37145 16.4135 7.66806V10.3898L16.3553 11.5913L16.8875 10.9305L17.529 10.2617C17.6151 10.1605 17.7421 10.1114 17.8798 10.1114C18.1557 10.1114 18.3607 10.3089 18.3607 10.5798C18.3607 10.7225 18.3122 10.8329 18.216 10.932L16.3077 12.8649C16.1811 12.9965 16.0536 13.0622 15.8933 13.0622C15.7385 13.0622 15.6156 13.0011 15.4845 12.8649L13.5706 10.932C13.4755 10.8329 13.437 10.7225 13.437 10.5798C13.437 10.3089 13.6365 10.1114 13.9124 10.1114C14.0475 10.1114 14.1781 10.1651 14.2632 10.2617L14.9103 10.9365L15.4323 11.5867L15.3741 10.3898V7.66806C15.3741 7.37145 15.5962 7.16293 15.8933 7.16293Z" fill="#A2DBAF"/>
</svg>
