<svg width="26" height="20" viewBox="0 0 26 20" fill="none" xmlns="http://www.w3.org/2000/svg">
<path d="M4.29474 16.1929L4.61975 17.4964C5.01495 19.1186 5.90122 19.9432 7.59269 19.9432H18.3062C20.0041 19.9432 20.8822 19.1348 21.2873 17.4964L21.6123 16.1929H4.29474ZM3.92051 14.6412H21.9947L23.7907 7.29318L22.6261 6.67025L18.2578 9.82073C17.9591 10.0295 17.7549 9.95476 17.5866 9.71453L13.35 3.42942L12.5571 3.41321L8.30223 9.71934C8.1502 9.94962 7.9703 10.018 7.67158 9.80749L3.37801 6.70741L2.09992 7.24099L3.92051 14.6412ZM2.49413 9.17942C3.87009 9.17942 4.97837 8.06302 4.97837 6.67717C4.97837 5.31742 3.87009 4.19292 2.49413 4.19292C1.11638 4.19292 0 5.30932 0 6.67717C0 8.06302 1.12449 9.17942 2.49413 9.17942ZM12.9527 4.97837C14.3205 4.97837 15.4369 3.86198 15.4369 2.48424C15.4369 1.12449 14.3205 0 12.9527 0C11.5668 0 10.4585 1.11638 10.4585 2.48424C10.4585 3.86198 11.5766 4.97837 12.9527 4.97837ZM23.3923 9.17942C24.7584 9.17942 25.8847 8.06302 25.8847 6.67717C25.8847 5.30932 24.7665 4.19292 23.3923 4.19292C22.0228 4.19292 20.9063 5.31742 20.9063 6.67717C20.9063 8.06302 22.0228 9.17942 23.3923 9.17942Z" fill="#FBBC05"/>
</svg>
