<svg width="21" height="26" viewBox="0 0 21 26" fill="none" xmlns="http://www.w3.org/2000/svg">
<path d="M3.80577 25.3655H16.2891C18.8013 25.3655 20.0948 24.0506 20.0948 21.5287V10.8966C20.0948 9.26883 19.8853 8.52188 18.8655 7.4829L12.7101 1.2314C11.7309 0.230858 10.9167 0 9.45444 0H3.80577C1.30523 0 0 1.32445 0 3.84632V21.5287C0 24.0602 1.29562 25.3655 3.80577 25.3655ZM3.98905 23.0695C2.85795 23.0695 2.29592 22.4777 2.29592 21.386V3.98905C2.29592 2.90694 2.85795 2.29592 3.99866 2.29592H8.99414V8.72273C8.99414 10.3997 9.81257 11.2106 11.482 11.2106H17.7989V21.386C17.7989 22.4777 17.2369 23.0695 16.0983 23.0695H3.98905ZM11.6993 9.18586C11.2137 9.18586 11.0189 8.97937 11.0189 8.49586V2.61491L17.4799 9.18586H11.6993Z" fill="black"/>
</svg>
