<svg width="15" height="14" viewBox="0 0 15 14" fill="none" xmlns="http://www.w3.org/2000/svg">
<path d="M7.29836 13.8856C11.0698 13.8856 14.1834 10.7677 14.1834 7.00179C14.1834 3.23041 11.0643 0.117981 7.2929 0.117981C3.52818 0.117981 0.414551 3.23041 0.414551 7.00179C0.414551 10.7677 3.53364 13.8856 7.29836 13.8856Z" fill="#4DBA66"/>
<path d="M7.29681 10.8935C7.11381 10.8935 6.97983 10.7638 6.97983 10.5741V10.1002C5.99663 10.0184 5.25664 9.49991 5.05978 8.75841C5.0314 8.67976 5.01807 8.5981 5.01807 8.51877C5.01807 8.24291 5.20626 8.05229 5.49108 8.05229C5.72886 8.05229 5.8868 8.1733 5.98476 8.42642C6.09445 8.8304 6.42071 9.13857 6.97983 9.21801V7.38643L6.86963 7.35987C5.71501 7.09026 5.1111 6.56566 5.1111 5.66745C5.1111 4.69542 5.89107 4.02913 6.97983 3.92304V3.45948C6.97983 3.26982 7.11381 3.14014 7.29681 3.14014C7.47862 3.14014 7.61374 3.26982 7.61374 3.45948V3.92304C8.54022 4.0206 9.24299 4.53615 9.42656 5.25188C9.44464 5.33118 9.46585 5.41289 9.46585 5.48912C9.46585 5.75542 9.26977 5.94 8.99334 5.94C8.75069 5.94 8.59578 5.80313 8.50155 5.57495C8.36643 5.16671 8.06015 4.90347 7.61374 4.82403V6.55792L7.76341 6.58988C8.96832 6.81036 9.57595 7.36959 9.57595 8.31336C9.57595 9.3686 8.73215 10.0088 7.61374 10.1099V10.5741C7.61374 10.7638 7.47862 10.8935 7.29681 10.8935ZM6.97983 6.39306V4.81923C6.44687 4.9048 6.12125 5.22202 6.12125 5.60161C6.12125 5.97213 6.37528 6.22138 6.93201 6.3797L6.97983 6.39306ZM7.61374 7.53792V9.21801C8.25111 9.14403 8.56701 8.82068 8.56701 8.38405C8.56701 7.98922 8.35483 7.73508 7.74476 7.57312L7.61374 7.53792Z" fill="white"/>
</svg>
