<svg width="26" height="26" viewBox="0 0 26 26" fill="none" xmlns="http://www.w3.org/2000/svg">
<path fill-rule="evenodd" clip-rule="evenodd" d="M8.45835 24.489C7.87382 25.0299 7.50023 25.2622 7.01578 25.2622C6.30984 25.2622 5.90109 24.7606 5.90109 23.9898V20.5944H5.42836C2.02476 20.5944 0 18.5872 0 15.0997V6.01132C0 2.52382 1.97625 0.507019 5.50218 0.507019H20.4504C23.9784 0.507019 25.9547 2.53343 25.9547 6.01132V15.0997C25.9547 18.5776 23.9784 20.5944 20.4504 20.5944H12.7626L8.45835 24.489ZM11.8936 11.4957C11.9159 12.1906 12.3064 12.5705 12.9938 12.5705C13.6503 12.5705 14.0386 12.2002 14.0609 11.4894L14.2451 5.60069C14.2674 4.88679 13.7278 4.3653 12.9821 4.3653C12.2246 4.3653 11.7064 4.87718 11.7286 5.59108L11.8936 11.4957ZM11.5547 15.272C11.5547 16.0447 12.2084 16.6102 12.9938 16.6102C13.7696 16.6102 14.4169 16.0543 14.4169 15.272C14.4169 14.5034 13.7792 13.9358 12.9938 13.9358C12.1988 13.9358 11.5547 14.5109 11.5547 15.272Z" fill="black"/>
</svg>
