<svg width="22" height="22" viewBox="0 0 22 22" fill="none" xmlns="http://www.w3.org/2000/svg">
<path d="M7.16421 0.580039C5.522 0.396497 3.82492 0.396497 2.18271 0.580039C1.1262 0.698108 0.271907 1.53007 0.147322 2.5953C-0.0491072 4.27476 -0.0491072 5.97141 0.147322 7.65086C0.271907 8.7161 1.1262 9.548 2.18271 9.66616C3.82492 9.84971 5.522 9.84971 7.16421 9.66616C8.2207 9.548 9.075 8.7161 9.19954 7.65086C9.39598 5.97141 9.39598 4.27476 9.19954 2.5953C9.075 1.53007 8.2207 0.698108 7.16421 0.580039Z" fill="#1C1C1E"/>
<path d="M7.16421 12.624C5.522 12.4404 3.82492 12.4404 2.18271 12.624C1.1262 12.7421 0.271907 13.574 0.147322 14.6392C-0.0491072 16.3188 -0.0491072 18.0153 0.147322 19.6949C0.271907 20.7601 1.1262 21.592 2.18271 21.7101C3.82492 21.8937 5.522 21.8937 7.16421 21.7101C8.2207 21.592 9.075 20.7601 9.19954 19.6949C9.39598 18.0153 9.39598 16.3188 9.19954 14.6392C9.075 13.574 8.2207 12.7421 7.16421 12.624Z" fill="#1C1C1E"/>
<path d="M19.2084 0.580039C17.5661 0.396497 15.8691 0.396497 14.2269 0.580039C13.1704 0.698108 12.3161 1.53007 12.1915 2.5953C11.9951 4.27476 11.9951 5.97141 12.1915 7.65086C12.3161 8.7161 13.1704 9.548 14.2269 9.66616C15.8691 9.84971 17.5661 9.84971 19.2084 9.66616C20.2649 9.548 21.1192 8.7161 21.2438 7.65086C21.4403 5.97141 21.4403 4.27476 21.2438 2.5953C21.1192 1.53007 20.2649 0.698108 19.2084 0.580039Z" fill="#4E4F4E" fill-opacity="0.5"/>
<path d="M19.2084 12.624C17.5661 12.4404 15.8691 12.4404 14.2269 12.624C13.1704 12.7421 12.3161 13.574 12.1915 14.6392C11.9951 16.3188 11.9951 18.0153 12.1915 19.6949C12.3161 20.7601 13.1704 21.592 14.2269 21.7101C15.8691 21.8937 17.5661 21.8937 19.2084 21.7101C20.2649 21.592 21.1192 20.7601 21.2438 19.6949C21.4403 18.0153 21.4403 16.3188 21.2438 14.6392C21.1192 13.574 20.2649 12.7421 19.2084 12.624Z" fill="#1C1C1E"/>
</svg>
