<svg width="22" height="22" viewBox="0 0 22 22" fill="none" xmlns="http://www.w3.org/2000/svg">
<path d="M7.16421 0.580039C5.522 0.396497 3.82492 0.396497 2.18271 0.580039C1.1262 0.698108 0.271907 1.53007 0.147322 2.5953C-0.0491072 4.27476 -0.0491072 5.97141 0.147322 7.65086C0.271907 8.7161 1.1262 9.548 2.18271 9.66616C3.82492 9.84971 5.522 9.84971 7.16421 9.66616C8.2207 9.548 9.075 8.7161 9.19954 7.65086C9.39598 5.97141 9.39598 4.27476 9.19954 2.5953C9.075 1.53007 8.2207 0.698108 7.16421 0.580039Z" fill="#4DBA66"/>
<path d="M7.16421 12.624C5.522 12.4404 3.82492 12.4404 2.18271 12.624C1.1262 12.7421 0.271907 13.574 0.147322 14.6392C-0.0491072 16.3188 -0.0491072 18.0153 0.147322 19.6949C0.271907 20.7601 1.1262 21.592 2.18271 21.7101C3.82492 21.8937 5.522 21.8937 7.16421 21.7101C8.2207 21.592 9.075 20.7601 9.19954 19.6949C9.39598 18.0153 9.39598 16.3188 9.19954 14.6392C9.075 13.574 8.2207 12.7421 7.16421 12.624Z" fill="#4DBA66"/>
<path d="M19.2091 0.580039C17.5669 0.396497 15.8698 0.396497 14.2276 0.580039C13.1711 0.698108 12.3168 1.53007 12.1923 2.5953C11.9958 4.27476 11.9958 5.97141 12.1923 7.65086C12.3168 8.7161 13.1711 9.548 14.2276 9.66616C15.8698 9.84971 17.5669 9.84971 19.2091 9.66616C20.2656 9.548 21.1199 8.7161 21.2446 7.65086C21.441 5.97141 21.441 4.27476 21.2446 2.5953C21.1199 1.53007 20.2656 0.698108 19.2091 0.580039Z" fill="#28CD41" fill-opacity="0.5"/>
<path d="M19.2091 12.624C17.5669 12.4404 15.8698 12.4404 14.2276 12.624C13.1711 12.7421 12.3168 13.574 12.1923 14.6392C11.9958 16.3188 11.9958 18.0153 12.1923 19.6949C12.3168 20.7601 13.1711 21.592 14.2276 21.7101C15.8698 21.8937 17.5669 21.8937 19.2091 21.7101C20.2656 21.592 21.1199 20.7601 21.2446 19.6949C21.441 18.0153 21.441 16.3188 21.2446 14.6392C21.1199 13.574 20.2656 12.7421 19.2091 12.624Z" fill="#4DBA66"/>
</svg>
