<svg width="26" height="23" viewBox="0 0 26 23" fill="none" xmlns="http://www.w3.org/2000/svg">
<path d="M1.25586 13.8637L8.88172 9.45374L14.4488 14.1799L24.2895 8.29851L23.4078 6.85852L14.5679 12.1465L9.02421 7.44165L1.25586 11.9292V13.8637ZM8.78632 10.9957C10.017 10.9957 11.0241 9.9907 11.0241 8.75789C11.0241 7.52719 10.017 6.52969 8.78632 6.52969C7.55351 6.52969 6.54852 7.52719 6.54852 8.75789C6.54852 9.9907 7.55351 10.9957 8.78632 10.9957ZM14.4526 15.3935C15.6854 15.3935 16.6808 14.3885 16.6808 13.1557C16.6808 11.925 15.6854 10.9275 14.4526 10.9275C13.2219 10.9275 12.2148 11.925 12.2148 13.1557C12.2148 14.3885 13.2219 15.3935 14.4526 15.3935ZM23.2759 10.0362C24.5066 10.0362 25.5116 9.02906 25.5116 7.79836C25.5116 6.56555 24.5066 5.56055 23.2759 5.56055C22.0431 5.56055 21.0381 6.56555 21.0381 7.79836C21.0381 9.02906 22.0431 10.0362 23.2759 10.0362Z" fill="black"/>
<path d="M0 21.2688C0 21.8714 0.402421 22.2642 1.00711 22.2642H24.476C25.1161 22.2642 25.6383 21.7781 25.6383 21.1221C25.6383 20.4757 25.1161 19.9779 24.476 19.9779H2.61983C2.38428 19.9779 2.29592 19.8895 2.29592 19.654V1.21946C2.29592 0.586881 1.80022 0.0646973 1.15382 0.0646973C0.4957 0.0646973 0 0.586881 0 1.21946V21.2688Z" fill="black"/>
</svg>
