<svg width="26" height="26" viewBox="0 0 26 26" fill="none" xmlns="http://www.w3.org/2000/svg">
<path fill-rule="evenodd" clip-rule="evenodd" d="M8.45835 24.489C7.87382 25.0299 7.50023 25.2622 7.01578 25.2622C6.30984 25.2622 5.90109 24.7606 5.90109 23.9898V20.5944H5.42836C2.02476 20.5944 0 18.5872 0 15.0997V6.01132C0 2.52382 1.97625 0.507019 5.50218 0.507019H20.4504C23.9784 0.507019 25.9547 2.53343 25.9547 6.01132V15.0997C25.9547 18.5776 23.9784 20.5944 20.4504 20.5944H12.7626L8.45835 24.489ZM8.06152 15.1873C8.06152 15.7934 8.46792 16.1923 9.13471 16.1923C9.67166 16.1923 10.0333 15.9256 10.2389 15.2459L10.9807 13.0508H14.9904L15.7343 15.2459C15.9398 15.9256 16.3015 16.1923 16.8459 16.1923C17.5031 16.1923 17.9116 15.7934 17.9116 15.1873C17.9116 14.983 17.8797 14.7629 17.7616 14.4385L14.6596 5.96466C14.3725 5.13568 13.8025 4.73279 12.9733 4.73279C12.1525 4.73279 11.6027 5.13357 11.3114 5.96466L8.21152 14.4385C8.09339 14.7629 8.06152 14.983 8.06152 15.1873ZM14.4993 11.3855H11.4717L12.9232 6.97669H13.05L14.4993 11.3855Z" fill="black"/>
</svg>
