<svg width="20" height="25" viewBox="0 0 20 25" fill="none" xmlns="http://www.w3.org/2000/svg">
<path d="M0 14.539C0 18.8142 2.34539 20.4879 9.07546 24.1767C9.38226 24.3387 9.68999 24.4195 9.89648 24.4195C10.103 24.4195 10.4203 24.3387 10.7175 24.1767C17.4572 20.4975 19.793 18.8142 19.793 14.539V5.67958C19.793 4.29092 19.2551 3.80084 18.0923 3.30514C16.7897 2.76256 12.3987 1.21826 11.1213 0.782093C10.7332 0.657641 10.29 0.576782 9.89648 0.576782C9.50296 0.576782 9.05977 0.678969 8.68125 0.782093C7.40391 1.14678 3.00328 2.77217 1.70062 3.30514C0.5475 3.79123 0 4.29092 0 5.67958V14.539ZM10.1004 21.9183V2.81083C10.2096 2.82044 10.3221 2.85442 10.5087 2.91489C12.0778 3.53153 15.427 4.7231 17.1907 5.34419C17.5113 5.4656 17.5922 5.64021 17.5922 6.05341V14.1012C17.5922 17.5641 15.8705 18.4943 10.5724 21.6902C10.3798 21.8159 10.2326 21.8895 10.1004 21.9183Z" fill="black"/>
</svg>
