<svg width="22" height="22" viewBox="0 0 8 12" fill="none" xmlns="http://www.w3.org/2000/svg">
<path d="M4.00005 0.344727C2.94034 0.344727 1.92409 0.765502 1.17477 1.51483C0.425443 2.26415 0.00439453 3.2804 0.00439453 4.34011C0.00439453 7.53637 4.00005 11.5322 4.00005 11.5322C4.00005 11.5322 7.9957 7.53637 7.9957 4.34011C7.99577 3.81537 7.89248 3.29646 7.6917 2.81166C7.49093 2.32685 7.19664 1.88587 6.8256 1.51483C6.45456 1.14378 6.01385 0.849222 5.52904 0.64845C5.04424 0.447677 4.52478 0.344653 4.00005 0.344727ZM4.00005 5.93848C3.68401 5.93848 3.37515 5.84527 3.11237 5.66971C2.84958 5.49416 2.64476 5.24388 2.52377 4.95192C2.40278 4.65997 2.37097 4.33871 2.43254 4.02874C2.49411 3.71876 2.64616 3.43398 2.86955 3.21043C3.09294 2.98688 3.37765 2.83521 3.68758 2.77342C3.99752 2.71163 4.31873 2.74222 4.61077 2.86301C4.90281 2.98379 5.15255 3.18922 5.32829 3.45188C5.50403 3.71454 5.59792 4.02298 5.59814 4.33901C5.59822 4.54896 5.55687 4.75684 5.4766 4.95083C5.39633 5.14482 5.27867 5.32128 5.13027 5.46978C4.98187 5.61829 4.8058 5.7357 4.61186 5.81611C4.41793 5.89652 4.20999 5.9384 4.00005 5.93848V5.93848Z" fill="black"/>
</svg>
