<svg width="24" height="24" viewBox="0 0 24 24" fill="none" xmlns="http://www.w3.org/2000/svg">
<path d="M1.14421 7.83303C1.89608 7.83303 2.29592 7.41186 2.29592 6.66749V4.01999C2.29592 2.88139 2.88772 2.31936 3.97733 2.31936H6.6846C7.44069 2.31936 7.85014 1.9078 7.85014 1.16554C7.85014 0.423278 7.44069 0.0234375 6.6846 0.0234375H3.84421C1.31484 0.0234375 0 1.31695 0 3.8196V6.66749C0 7.41397 0.41156 7.83303 1.14421 7.83303ZM22.0657 7.83303C22.8176 7.83303 23.2174 7.41397 23.2174 6.66749V3.8196C23.2174 1.31695 21.9047 0.0234375 19.3732 0.0234375H16.5232C15.7788 0.0234375 15.3673 0.423278 15.3673 1.16554C15.3673 1.9078 15.7809 2.31936 16.5232 2.31936H19.2305C20.3105 2.31936 20.9215 2.88139 20.9215 4.01999V6.66749C20.9215 7.41397 21.333 7.83303 22.0657 7.83303ZM3.84421 23.2312H6.6846C7.44069 23.2312 7.85014 22.8197 7.85014 22.087C7.85014 21.3448 7.43647 20.9353 6.6846 20.9353H3.97733C2.88772 20.9353 2.29592 20.3733 2.29592 19.2326V16.5851C2.29592 15.8311 1.88647 15.4195 1.14421 15.4195C0.399841 15.4195 0 15.8311 0 16.5851V19.4255C0 21.9356 1.31484 23.2312 3.84421 23.2312ZM16.5232 23.2312H19.3732C21.9047 23.2312 23.2174 21.926 23.2174 19.4255V16.5851C23.2174 15.8311 22.808 15.4195 22.0657 15.4195C21.3234 15.4195 20.9215 15.8332 20.9215 16.5851V19.2326C20.9215 20.3733 20.3105 20.9353 19.2305 20.9353H16.5232C15.7788 20.9353 15.3673 21.3448 15.3673 22.087C15.3673 22.8197 15.7788 23.2312 16.5232 23.2312Z" fill="black"/>
<path d="M11.6171 4.61426C9.45965 4.61426 7.74121 6.34231 7.74121 8.4763C7.74121 10.0874 8.68645 11.4885 10.1485 12.0808V17.8689C10.1581 18.0381 10.2251 18.1827 10.355 18.3083L11.367 19.3089C11.517 19.4472 11.7253 19.4589 11.8796 19.3026L13.7604 17.4313C13.9327 17.2686 13.9242 17.0326 13.7583 16.8817L12.6664 15.7813L14.2027 14.2642C14.3515 14.1229 14.344 13.8826 14.1835 13.7104L12.6917 12.209C14.4814 11.4568 15.4758 10.1036 15.4758 8.4763C15.4758 6.35192 13.7457 4.61426 11.6171 4.61426ZM11.6075 6.50075C12.251 6.50075 12.7742 7.02926 12.7742 7.67708C12.7742 8.33778 12.251 8.87051 11.6075 8.87051C10.966 8.87051 10.4236 8.33778 10.4236 7.67708C10.4236 7.02926 10.9564 6.50075 11.6075 6.50075Z" fill="black"/>
</svg>
