<svg width="17" height="16" viewBox="0 0 17 16" fill="none" xmlns="http://www.w3.org/2000/svg">
<path d="M9.39601 15.0062C13.185 15.0062 16.3132 11.8683 16.3132 8.08902C16.3132 4.29937 13.1735 1.17188 9.39053 1.17188C5.86675 1.17188 2.9285 3.86799 2.53059 7.28959C2.93947 7.19559 3.48121 7.16999 3.91809 7.23668C4.3105 4.56254 6.59532 2.53445 9.39053 2.53445C12.4674 2.53445 14.9506 5.00665 14.9506 8.08902C14.9506 9.55502 14.3918 10.8846 13.4636 11.8655C12.7772 11.0977 11.3032 10.3983 9.39053 10.3983C8.78504 10.3983 8.2271 10.4715 7.72578 10.5903C7.80253 10.9081 7.8415 11.2503 7.8415 11.587C7.8415 12.6762 7.43093 13.687 6.74704 14.4642C7.5659 14.8137 8.4615 15.0062 9.39601 15.0062ZM9.39053 9.2949C10.6835 9.30708 11.6958 8.20045 11.6958 6.76433C11.6958 5.41285 10.6756 4.28611 9.39053 4.28611C8.10001 4.28611 7.07184 5.41285 7.08401 6.76433C7.09195 8.19496 8.09641 9.28393 9.39053 9.2949Z" fill="#1C1C1E"/>
<path fill-rule="evenodd" clip-rule="evenodd" d="M7 11.4439C7 13.328 5.41706 14.8879 3.4997 14.8879C1.58573 14.8879 0 13.328 0 11.4439C0 9.55713 1.58295 8 3.49692 8C5.41428 8 7 9.55713 7 11.4439ZM5.20259 11.6887C5.28132 11.6158 5.31853 11.5395 5.31853 11.4437C5.31853 11.3478 5.28409 11.277 5.20259 11.1992L4.00951 10.0383C3.9499 9.98082 3.88343 9.95508 3.7967 9.95508C3.6315 9.95508 3.51149 10.075 3.51149 10.2399C3.51149 10.3223 3.55087 10.3976 3.60343 10.4524L4.02307 10.8525L4.42462 11.1674L3.70008 11.1332H1.98226C1.80419 11.1332 1.67531 11.2633 1.67531 11.4437C1.67531 11.6213 1.80419 11.7514 1.98226 11.7514H3.70008L4.42462 11.7199L4.02675 12.0343L3.60343 12.4349C3.54685 12.4863 3.51149 12.5617 3.51149 12.6446C3.51149 12.8102 3.6315 12.9322 3.7967 12.9322C3.88343 12.9322 3.9499 12.9038 4.00951 12.8463L5.20259 11.6887Z" fill="#1C1C1E"/>
</svg>
