<svg width="130" height="22" viewBox="0 0 130 22" fill="none" xmlns="http://www.w3.org/2000/svg">
<g clip-path="url(#clip0_1_24857)">
<path d="M122.23 9.55956C121.36 9.54806 120.506 9.79689 119.776 10.2744C119.047 10.7519 118.476 11.4364 118.135 12.2411C117.794 13.0458 117.699 13.9342 117.862 14.7934C118.024 15.6526 118.438 16.4437 119.049 17.0662C119.66 17.6887 120.442 18.1145 121.295 18.2894C122.147 18.4643 123.032 18.3804 123.837 18.0484C124.643 17.7164 125.331 17.1514 125.816 16.425C126.301 15.6986 126.559 14.8438 126.559 13.9692C126.566 12.8078 126.113 11.6914 125.302 10.8647C124.49 10.038 123.385 9.56868 122.23 9.55956ZM122.23 21.8352C121.206 21.8374 120.192 21.6344 119.248 21.2376C118.303 20.841 117.447 20.2588 116.729 19.5252C115.274 18.0452 114.459 16.0487 114.459 13.9684C114.459 11.888 115.274 9.8915 116.729 8.41148C117.448 7.67975 118.305 7.09877 119.249 6.70225C120.193 6.30573 121.206 6.10156 122.229 6.10156C123.253 6.10156 124.266 6.30573 125.21 6.70225C126.154 7.09877 127.011 7.67975 127.73 8.41148C129.184 9.8915 130 11.888 130 13.9684C130 16.0487 129.184 18.0452 127.73 19.5252C127.012 20.2588 126.156 20.841 125.212 21.2376C124.267 21.6344 123.253 21.8374 122.23 21.8352Z" fill="black"/>
<path d="M107.625 0H104.185V21.858H107.625V0Z" fill="black"/>
<path d="M30.3269 0H26.8862V21.858H30.3269V0Z" fill="black"/>
<path d="M112.756 6.06836H109.315V21.8595H112.756V6.06836Z" fill="black"/>
<path d="M72.6862 6.0918H62.1785V9.5498H72.6862V6.0918Z" fill="black"/>
<path d="M99.3777 9.55956C98.5075 9.54806 97.6537 9.79689 96.9246 10.2744C96.1955 10.7519 95.6242 11.4364 95.2832 12.2411C94.9422 13.0458 94.8471 13.9342 95.0097 14.7934C95.1726 15.6526 95.5858 16.4437 96.1971 17.0662C96.8083 17.6887 97.5899 18.1145 98.4426 18.2894C99.2952 18.4643 100.18 18.3804 100.985 18.0484C101.79 17.7164 102.479 17.1514 102.964 16.425C103.449 15.6986 103.707 14.8438 103.708 13.9692C103.714 12.8078 103.261 11.6914 102.45 10.8647C101.638 10.038 100.533 9.56868 99.3777 9.55956ZM99.3777 21.8352C98.3539 21.8374 97.3401 21.6344 96.3957 21.2378C95.451 20.841 94.5948 20.2588 93.8769 19.5252C92.4223 18.0452 91.6067 16.0487 91.6067 13.9684C91.6067 11.888 92.4223 9.8915 93.8769 8.41148C94.5961 7.67975 95.4525 7.09877 96.3968 6.70225C97.3409 6.30573 98.3541 6.10156 99.3775 6.10156C100.401 6.10156 101.414 6.30573 102.358 6.70225C103.302 7.09877 104.159 7.67975 104.878 8.41148C106.332 9.8915 107.148 11.888 107.148 13.9684C107.148 16.0487 106.332 18.0452 104.878 19.5252C104.16 20.2588 103.304 20.841 102.36 21.2378C101.415 21.6344 100.401 21.8374 99.3777 21.8352Z" fill="black"/>
<path d="M35.1351 9.55948C34.2649 9.54798 33.4109 9.79681 32.6818 10.2743C31.9528 10.7518 31.3814 11.4364 31.0406 12.241C30.6997 13.0457 30.6045 13.9341 30.7671 14.7933C30.9298 15.6525 31.3432 16.4436 31.9543 17.0661C32.5657 17.6887 33.3473 18.1144 34.1998 18.2893C35.0525 18.4642 35.9377 18.3803 36.7427 18.0483C37.5479 17.7164 38.2366 17.1513 38.7212 16.4249C39.206 15.6986 39.4647 14.8437 39.4647 13.9691C39.471 12.8077 39.0188 11.6913 38.2071 10.8646C37.3953 10.038 36.2905 9.5686 35.1351 9.55948ZM35.1351 21.8352C34.1113 21.8374 33.0976 21.6343 32.1531 21.2377C31.2086 20.8409 30.3526 20.2587 29.6349 19.5252C28.1803 18.0452 27.3645 16.0486 27.3645 13.9683C27.3645 11.888 28.1803 9.89142 29.6349 8.4114C30.354 7.67969 31.2104 7.09875 32.1545 6.70225C33.0987 6.30573 34.1117 6.10156 35.1351 6.10156C36.1582 6.10156 37.1714 6.30573 38.1155 6.70225C39.0596 7.09875 39.916 7.67969 40.6351 8.4114C42.0897 9.89142 42.9054 11.888 42.9054 13.9683C42.9054 16.0486 42.0897 18.0452 40.6351 19.5252C39.9174 20.2587 39.0614 20.8409 38.1169 21.2375C37.1724 21.6341 36.1586 21.8374 35.1351 21.8352Z" fill="black"/>
<path d="M82.1469 21.8332C81.1233 21.8355 80.1094 21.6325 79.1649 21.2357C78.2204 20.8391 77.364 20.2569 76.6463 19.5233C75.9233 18.7923 75.3506 17.9253 74.9612 16.9718C74.5717 16.0183 74.373 14.9969 74.3765 13.9661V6.06641H77.816V13.9661C77.8066 14.5436 77.9118 15.1172 78.1252 15.6535C78.3387 16.1898 78.6562 16.678 79.0591 17.0897C79.4623 17.5014 79.9428 17.8283 80.4727 18.0515C81.0029 18.2747 81.5718 18.3897 82.1465 18.3897C82.7212 18.3897 83.2901 18.2747 83.8201 18.0515C84.3502 17.8283 84.8307 17.5014 85.2337 17.0897C85.6366 16.678 85.9541 16.1898 86.1676 15.6535C86.381 15.1172 86.4862 14.5436 86.4768 13.9661V6.06752H89.9175V13.9661C89.9208 14.9969 89.722 16.0183 89.3326 16.9719C88.9429 17.9254 88.3702 18.7924 87.6471 19.5233C86.9294 20.2569 86.0734 20.8391 85.1289 21.2357C84.1844 21.6323 83.1706 21.8355 82.1469 21.8332Z" fill="black"/>
<path d="M73.5171 21.8352C72.4933 21.8376 71.4795 21.6346 70.5349 21.2378C69.5904 20.8412 68.734 20.259 68.0163 19.5254C67.2931 18.7944 66.7204 17.9274 66.3308 16.9739C65.9413 16.0204 65.7426 14.999 65.7459 13.9682V1.66797H69.1866V13.9688C69.1805 15.1302 69.6329 16.2466 70.4448 17.0732C71.2565 17.8997 72.3615 18.3689 73.5171 18.3779V21.8352Z" fill="black"/>
<path d="M7.76988 5.21542V0H4.32981V13.967C4.33605 15.1284 3.88372 16.2448 3.07203 17.0715C2.26032 17.8981 1.15555 18.3675 0 18.3766V21.8346C1.0236 21.8368 2.03735 21.6337 2.9818 21.2371C3.92627 20.8403 4.78243 20.2581 5.50012 19.5247C6.22328 18.7938 6.79602 17.9267 7.18559 16.9732C7.57514 16.0197 7.77389 14.9983 7.77045 13.9675V5.21542H7.76988Z" fill="black"/>
<path d="M111.048 4.62731C110.752 4.62739 110.458 4.56882 110.185 4.4549C109.911 4.34097 109.662 4.17393 109.453 3.96337C109.243 3.75281 109.077 3.50282 108.964 3.22769C108.85 2.95257 108.792 2.65769 108.792 2.3599V2.26857C108.792 1.66692 109.03 1.08989 109.453 0.664446C109.876 0.239006 110.451 0 111.049 0C111.648 0 112.222 0.239006 112.645 0.664446C113.069 1.08989 113.306 1.66692 113.306 2.26857V2.3599C113.306 2.96131 113.069 3.53804 112.645 3.96325C112.222 4.38846 111.648 4.62731 111.05 4.62731" fill="black"/>
<path d="M45.6919 22.001C45.3956 22.001 45.1021 21.9424 44.8284 21.8285C44.5547 21.7147 44.3059 21.5476 44.0964 21.337C43.8869 21.1265 43.7207 20.8765 43.6073 20.6013C43.4941 20.3262 43.4358 20.0313 43.4358 19.7335V19.6417C43.4358 19.04 43.6736 18.463 44.097 18.0375C44.5202 17.6121 45.0944 17.373 45.693 17.373C46.2916 17.373 46.8657 17.6121 47.2891 18.0375C47.7123 18.463 47.9503 19.04 47.9503 19.6417V19.7335C47.9503 20.0313 47.8918 20.3262 47.7784 20.6013C47.665 20.8763 47.4988 21.1263 47.2895 21.337C47.08 21.5474 46.8312 21.7145 46.5575 21.8283C46.2838 21.9422 45.9905 22.001 45.6942 22.001" fill="#4DBA66"/>
<path d="M23.5616 18.5867L20.7666 16.5691C21.2395 15.9154 21.5232 15.1431 21.5865 14.3375C21.6499 13.5319 21.4904 12.7245 21.1257 12.0043C20.7609 11.2841 20.2053 10.6792 19.5199 10.2566C18.8345 9.83403 18.0463 9.61013 17.2423 9.60962C16.4382 9.60908 15.6497 9.83198 14.9638 10.2537C14.2779 10.6754 13.7214 11.2794 13.3558 11.9992C12.9901 12.7189 12.8296 13.5262 12.8919 14.3319C12.9542 15.1375 13.2369 15.9102 13.7088 16.5645L10.9134 18.5798C9.82975 17.0571 9.31624 15.1985 9.46345 13.3323C9.61067 11.466 10.4091 9.71199 11.7179 8.37984C12.4397 7.64516 13.2995 7.06182 14.2473 6.66369C15.1951 6.26556 16.2122 6.06055 17.2395 6.06055C18.2668 6.06055 19.2838 6.26556 20.2316 6.66369C21.1794 7.06182 22.0393 7.64516 22.761 8.37984C24.0712 9.71314 24.8703 11.4691 25.0166 13.3372C25.163 15.2054 24.6474 17.0654 23.561 18.5884" fill="black"/>
<path d="M17.2409 21.8532C15.9824 21.8524 14.7429 21.5448 13.6288 20.9566C12.5538 20.3846 11.625 19.5704 10.915 18.5778L13.71 16.5625C14.1098 17.1288 14.6386 17.5907 15.2524 17.9096C15.8661 18.2285 16.5469 18.3951 17.2379 18.3955C17.9288 18.3959 18.6098 18.2301 19.2239 17.9119C19.838 17.5937 20.3673 17.1324 20.7678 16.5665L23.5604 18.5853C22.8504 19.5761 21.922 20.3886 20.8478 20.9594C19.7352 21.5466 18.4975 21.8534 17.2409 21.8538" fill="#4DBA66"/>
<path d="M55.3488 6.09975C56.9519 6.03409 58.5309 6.50915 59.8346 7.44939C60.3822 7.84235 60.8266 8.36312 61.1297 8.96687C61.4328 9.57061 61.5855 10.2393 61.5747 10.9154H57.9425C57.8517 9.71914 56.8436 8.89094 55.379 8.89094C54.0362 8.89094 53.0933 9.56579 53.0933 10.5473C53.0933 11.6512 54.1922 12.0808 56.7247 12.6022C58.2027 12.8271 59.6051 13.4056 60.814 14.289C61.2049 14.6455 61.5158 15.0814 61.7264 15.5679C61.9367 16.0543 62.0418 16.5802 62.0346 17.1107C62.0362 17.783 61.8725 18.4454 61.5586 19.0391C61.2447 19.6329 60.7899 20.1398 60.2345 20.5146C58.8493 21.4498 57.2019 21.9129 55.535 21.8356C53.8318 21.9087 52.1508 21.4251 50.744 20.4573C50.1653 20.0727 49.6914 19.5482 49.3663 18.9321C49.0411 18.3159 48.8747 17.6277 48.8823 16.9303H52.7276C52.819 18.1571 53.9179 18.9853 55.5048 18.9853C56.9694 18.9853 58.0071 18.249 58.0071 17.2364C58.0071 16.132 56.9082 15.734 54.4677 15.2119C54.3131 15.1937 54.1602 15.1631 54.0105 15.1206C50.8064 14.3539 49.1886 12.9124 49.1886 10.7351C49.1798 10.08 49.331 9.43262 49.6291 8.84987C49.9271 8.2671 50.3626 7.76671 50.8979 7.39253C52.2018 6.48125 53.7686 6.02821 55.3551 6.10375" fill="black"/>
</g>
<defs>
<clipPath id="clip0_1_24857">
<rect width="130" height="22" fill="white"/>
</clipPath>
</defs>
</svg>
