<svg width="106" height="18" viewBox="0 0 106 18" fill="none" xmlns="http://www.w3.org/2000/svg">
<path d="M99.664 7.66167C98.9545 7.65244 98.2581 7.8519 97.6637 8.23463C97.0692 8.61739 96.6033 9.1661 96.3253 9.8111C96.0474 10.4561 95.9698 11.1682 96.1024 11.8569C96.2351 12.5456 96.5721 13.1797 97.0705 13.6787C97.569 14.1777 98.2063 14.519 98.9016 14.6592C99.5967 14.7994 100.318 14.7321 100.975 14.466C101.631 14.1999 102.193 13.747 102.588 13.1647C102.983 12.5825 103.194 11.8973 103.194 11.1963C103.2 10.2653 102.831 9.37043 102.169 8.70781C101.507 8.04519 100.606 7.66898 99.664 7.66167ZM99.664 17.5014C98.8293 17.5032 98.0027 17.3404 97.2324 17.0223C96.4622 16.7044 95.7639 16.2378 95.1787 15.6498C93.9927 14.4635 93.3276 12.8631 93.3276 11.1956C93.3276 9.52809 93.9927 7.92773 95.1787 6.74141C95.7651 6.15488 96.4635 5.68919 97.2333 5.37135C98.0033 5.05352 98.8293 4.88986 99.6637 4.88986C100.498 4.88986 101.324 5.05352 102.094 5.37135C102.864 5.68919 103.562 6.15488 104.149 6.74141C105.335 7.92773 106 9.52809 106 11.1956C106 12.8631 105.335 14.4635 104.149 15.6498C103.563 16.2378 102.866 16.7044 102.095 17.0223C101.325 17.3404 100.499 17.5032 99.664 17.5014Z" fill="white" fill-opacity="0.85"/>
<path d="M87.7562 0.000473022H84.9507V17.5211H87.7562V0.000473022Z" fill="white" fill-opacity="0.85"/>
<path d="M24.7291 0.000473022H21.9236V17.5211H24.7291V0.000473022Z" fill="white" fill-opacity="0.85"/>
<path d="M91.9408 4.86368H89.1353V17.5212H91.9408V4.86368Z" fill="white" fill-opacity="0.85"/>
<path d="M59.2689 4.88348H50.7009V7.65529H59.2689V4.88348Z" fill="white" fill-opacity="0.85"/>
<path d="M81.0312 7.66167C80.3217 7.65244 79.6255 7.8519 79.031 8.23463C78.4365 8.61739 77.9707 9.1661 77.6926 9.8111C77.4146 10.4561 77.337 11.1682 77.4696 11.8569C77.6024 12.5456 77.9393 13.1797 78.4378 13.6787C78.9361 14.1777 79.5735 14.519 80.2688 14.6592C80.964 14.7994 81.6857 14.7321 82.3421 14.466C82.9986 14.1999 83.5601 13.747 83.9555 13.1647C84.3506 12.5825 84.5616 11.8973 84.5618 11.1963C84.5669 10.2653 84.198 9.37043 83.5361 8.70781C82.8743 8.04519 81.9735 7.66898 81.0312 7.66167ZM81.0312 17.5014C80.1965 17.5032 79.3698 17.3404 78.5997 17.0225C77.8294 16.7044 77.1313 16.2378 76.5459 15.6498C75.3599 14.4635 74.6948 12.8631 74.6948 11.1956C74.6948 9.52809 75.3599 7.92773 76.5459 6.74141C77.1324 6.15488 77.8307 5.68919 78.6007 5.37135C79.3705 5.05352 80.1966 4.88986 81.0311 4.88986C81.8653 4.88986 82.6915 5.05352 83.4614 5.37135C84.2312 5.68919 84.9297 6.15488 85.516 6.74141C86.7021 7.92773 87.3671 9.52809 87.3671 11.1956C87.3671 12.8631 86.7021 14.4635 85.516 15.6498C84.9308 16.2378 84.2328 16.7044 83.4627 17.0225C82.6926 17.3404 81.8658 17.5032 81.0312 17.5014Z" fill="white" fill-opacity="0.85"/>
<path d="M28.6486 7.6617C27.9391 7.65247 27.2427 7.85192 26.6482 8.23466C26.0537 8.61742 25.5879 9.16613 25.31 9.81113C25.032 10.4561 24.9544 11.1683 25.087 11.8569C25.2196 12.5456 25.5567 13.1798 26.055 13.6787C26.5535 14.1777 27.1909 14.519 27.886 14.6592C28.5812 14.7994 29.303 14.7322 29.9594 14.466C30.616 14.2 31.1775 13.747 31.5726 13.1648C31.968 12.5826 32.179 11.8973 32.179 11.1963C32.1841 10.2654 31.8153 9.37046 31.1535 8.70784C30.4915 8.04522 29.5907 7.66901 28.6486 7.6617ZM28.6486 17.5014C27.8138 17.5032 26.9872 17.3404 26.2171 17.0225C25.4469 16.7045 24.749 16.2378 24.1638 15.6498C22.9777 14.4635 22.3125 12.8631 22.3125 11.1956C22.3125 9.52812 22.9777 7.92776 24.1638 6.74144C24.7501 6.15492 25.4484 5.68926 26.2182 5.37144C26.9882 5.05361 27.8141 4.88995 28.6486 4.88995C29.4829 4.88995 30.309 5.05361 31.0788 5.37144C31.8486 5.68926 32.5469 6.15492 33.1332 6.74144C34.3193 7.92776 34.9845 9.52812 34.9845 11.1956C34.9845 12.8631 34.3193 14.4635 33.1332 15.6498C32.548 16.2378 31.85 16.7045 31.0799 17.0223C30.3098 17.3402 29.4832 17.5032 28.6486 17.5014Z" fill="white" fill-opacity="0.85"/>
<path d="M66.9824 17.5012C66.1478 17.5032 65.3211 17.3404 64.5509 17.0223C63.7808 16.7044 63.0825 16.2378 62.4973 15.6497C61.9078 15.0638 61.4408 14.3689 61.1233 13.6045C60.8057 12.8402 60.6436 12.0215 60.6465 11.1953V4.86319H63.4511V11.1953C63.4434 11.6582 63.5292 12.118 63.7032 12.5478C63.8773 12.9777 64.1361 13.369 64.4647 13.699C64.7935 14.029 65.1852 14.2911 65.6173 14.47C66.0496 14.6489 66.5135 14.7411 66.9821 14.7411C67.4507 14.7411 67.9146 14.6489 68.3467 14.47C68.779 14.2911 69.1708 14.029 69.4994 13.699C69.828 13.369 70.0868 12.9777 70.2609 12.5478C70.4349 12.118 70.5207 11.6582 70.513 11.1953V4.86408H73.3185V11.1953C73.3212 12.0216 73.1592 12.8403 72.8416 13.6046C72.5239 14.3689 72.0569 15.0639 71.4673 15.6497C70.8821 16.2378 70.1841 16.7044 69.4139 17.0223C68.6438 17.3402 67.8172 17.5032 66.9824 17.5012Z" fill="white" fill-opacity="0.85"/>
<path d="M59.9455 17.5018C59.1107 17.5037 58.2841 17.3409 57.5138 17.0229C56.7437 16.705 56.0454 16.2383 55.4602 15.6503C54.8705 15.0644 54.4035 14.3694 54.0858 13.6051C53.7683 12.8408 53.6062 12.0221 53.6089 11.1959V1.33644H56.4144V11.1963C56.4095 12.1273 56.7784 13.0221 57.4404 13.6847C58.1022 14.3472 59.0032 14.7233 59.9455 14.7305V17.5018Z" fill="white" fill-opacity="0.85"/>
<path d="M6.33551 4.18118V0.000686646H3.5305V11.1961C3.53559 12.127 3.16676 13.0219 2.50491 13.6845C1.84305 14.3472 0.942227 14.7234 0 14.7307V17.5025C0.834637 17.5042 1.66124 17.3414 2.43134 17.0235C3.20146 16.7055 3.89957 16.2389 4.48476 15.6509C5.07443 15.0651 5.54143 14.3701 5.85908 13.6058C6.17672 12.8414 6.33878 12.0228 6.33598 11.1965V4.18118H6.33551Z" fill="white" fill-opacity="0.85"/>
<path d="M90.5483 3.70907C90.3068 3.70913 90.0674 3.66218 89.8443 3.57086C89.6211 3.47955 89.4182 3.34566 89.2474 3.17688C89.0765 3.0081 88.941 2.80772 88.8487 2.58719C88.7563 2.36665 88.7087 2.13029 88.7087 1.89159V1.81839C88.7087 1.33612 88.9026 0.873597 89.2479 0.53258C89.5929 0.191563 90.0612 -1.52588e-05 90.5493 -1.52588e-05C91.0374 -1.52588e-05 91.5055 0.191563 91.8507 0.53258C92.1959 0.873597 92.3897 1.33612 92.3897 1.81839V1.89159C92.3897 2.37366 92.1958 2.83595 91.8507 3.17678C91.5056 3.51761 91.0377 3.70907 90.5498 3.70907" fill="white" fill-opacity="0.85"/>
<path d="M37.2563 17.6349C37.0148 17.6349 36.7754 17.588 36.5523 17.4967C36.3291 17.4054 36.1263 17.2715 35.9554 17.1027C35.7845 16.934 35.649 16.7335 35.5566 16.513C35.4643 16.2924 35.4167 16.0561 35.4167 15.8174V15.7438C35.4167 15.2615 35.6106 14.799 35.9559 14.4579C36.3009 14.1169 36.7692 13.9253 37.2573 13.9253C37.7454 13.9253 38.2135 14.1169 38.5587 14.4579C38.9038 14.799 39.0978 15.2615 39.0978 15.7438V15.8174C39.0978 16.0561 39.0502 16.2924 38.9577 16.513C38.8652 16.7334 38.7297 16.9338 38.559 17.1027C38.3882 17.2713 38.1853 17.4052 37.9622 17.4965C37.739 17.5878 37.4998 17.6349 37.2583 17.6349" fill="#D3D3D3" fill-opacity="0.85"/>
<path d="M19.2098 14.8976L16.9308 13.2804C17.3163 12.7564 17.5477 12.1374 17.5993 11.4916C17.651 10.8459 17.5209 10.1987 17.2235 9.62139C16.9261 9.04411 16.4731 8.55928 15.9142 8.22055C15.3554 7.88181 14.7127 7.70233 14.057 7.70192C13.4014 7.70149 12.7585 7.88016 12.1992 8.21818C11.6399 8.55622 11.1862 9.04039 10.888 9.61729C10.5899 10.1942 10.459 10.8413 10.5098 11.4871C10.5606 12.1329 10.7911 12.7523 11.1759 13.2767L8.8965 14.8921C8.01293 13.6715 7.59422 12.1818 7.71425 10.6858C7.8343 9.18993 8.48536 7.78398 9.55256 6.71618C10.1411 6.12729 10.8421 5.6597 11.615 5.34057C12.3878 5.02144 13.2171 4.85712 14.0548 4.85712C14.8924 4.85712 15.7217 5.02144 16.4945 5.34057C17.2674 5.6597 17.9686 6.12729 18.557 6.71618C19.6253 7.7849 20.2769 9.1924 20.3962 10.6898C20.5156 12.1873 20.0951 13.6782 19.2094 14.899" fill="white" fill-opacity="0.85"/>
<path d="M14.0567 17.5156C13.0306 17.515 12.0199 17.2684 11.1115 16.797C10.2349 16.3385 9.47756 15.6859 8.89868 14.8902L11.1776 13.2748C11.5036 13.7288 11.9349 14.099 12.4353 14.3546C12.9358 14.6102 13.4909 14.7438 14.0543 14.7441C14.6176 14.7444 15.1729 14.6115 15.6737 14.3565C16.1744 14.1014 16.606 13.7316 16.9325 13.278L19.2097 14.8962C18.6307 15.6904 17.8737 16.3417 16.9978 16.7992C16.0906 17.2699 15.0814 17.5158 14.0567 17.5161" fill="#D3D3D3" fill-opacity="0.85"/>
<path d="M45.1313 4.88988C46.4385 4.83725 47.726 5.21804 48.789 5.9717C49.2355 6.28668 49.5979 6.70411 49.845 7.18806C50.0922 7.67199 50.2167 8.20798 50.2079 8.74996H47.2462C47.1721 7.79105 46.3502 7.1272 45.1559 7.1272C44.0611 7.1272 43.2922 7.66813 43.2922 8.45488C43.2922 9.33968 44.1882 9.68404 46.2532 10.102C47.4583 10.2823 48.6019 10.746 49.5876 11.4541C49.9063 11.7398 50.1599 12.0892 50.3315 12.4792C50.503 12.8691 50.5888 13.2906 50.5829 13.7158C50.5841 14.2548 50.4507 14.7857 50.1948 15.2616C49.9388 15.7375 49.568 16.1438 49.1151 16.4443C47.9856 17.1939 46.6423 17.5651 45.2831 17.5032C43.8944 17.5618 42.5237 17.1741 41.3766 16.3984C40.9047 16.09 40.5184 15.6696 40.2533 15.1758C39.988 14.6819 39.8524 14.1303 39.8586 13.5713H42.994C43.0686 14.5546 43.9646 15.2184 45.2585 15.2184C46.4527 15.2184 47.2988 14.6282 47.2988 13.8166C47.2988 12.9314 46.4028 12.6123 44.4128 12.1939C44.2868 12.1792 44.1622 12.1548 44.0401 12.1207C41.4275 11.5061 40.1083 10.3506 40.1083 8.60542C40.1011 8.08028 40.2245 7.56138 40.4675 7.09427C40.7105 6.62714 41.0656 6.22605 41.5021 5.92613C42.5653 5.19568 43.8428 4.83254 45.1364 4.89309" fill="white" fill-opacity="0.85"/>
</svg>
