<svg width="22" height="22" viewBox="0 0 25 25" fill="none" xmlns="http://www.w3.org/2000/svg">
<path d="M12.666 24.2296C19.2979 24.2296 24.7731 18.7544 24.7731 12.1225C24.7731 5.50242 19.2883 0.0175781 12.6564 0.0175781C6.03626 0.0175781 0.561035 5.50242 0.561035 12.1225C0.561035 18.7544 6.04587 24.2296 12.666 24.2296Z" fill="#1C1C1E"/>
<path d="M12.6688 16.8263C12.3993 16.8263 12.1469 16.8242 11.9167 16.8104C11.7899 16.7966 11.7112 16.8317 11.5759 16.9159C10.3764 17.6424 9.18627 18.1569 8.52252 18.1569C7.98885 18.1569 7.87823 17.7308 8.21174 17.342C8.46206 17.0502 8.80096 16.6625 9.00862 16.2514C9.08315 16.1024 9.08526 15.9702 8.93713 15.8935C7.25197 14.8749 6.11572 13.2892 6.11572 11.4615C6.11572 8.48239 8.98846 6.08496 12.6688 6.08496C16.3471 6.08496 19.2198 8.48239 19.2198 11.4615C19.2198 14.4289 16.3471 16.8263 12.6688 16.8263Z" fill="white"/>
</svg>
