<svg width="395" height="288" viewBox="0 0 395 288" fill="none" xmlns="http://www.w3.org/2000/svg">
<path opacity="0.18" d="M62.9669 60.8586C51.294 63.3332 39.1607 66.0188 29.7898 73.4091C21.8768 79.6436 9.54687 91.1534 5.81098 100.505C-10.015 140.008 7.87795 188.076 42.6088 212.659C58.9432 224.221 79.3012 229.818 93.981 243.428C103.266 252.037 109.769 263.432 119.648 271.344C134.083 282.897 153.573 285.454 172.018 286.691C184.832 287.559 198.145 287.933 210.034 283.061C218.628 279.54 225.908 273.503 233.053 267.551L280.392 228.02C287.998 221.675 295.11 211.57 305.014 211.637C394.148 212.275 400.157 107.377 263.358 60.9161C251.301 56.8205 243.033 45.4354 231.706 39.599C208.307 27.5376 181.379 31.4462 157.779 39.7908C127.815 50.4134 94.0626 54.2452 62.9669 60.8586Z" fill="#4DBA66"/>
<path opacity="0.05" d="M373.622 230.083C377.353 230.145 382.158 231.075 382.734 234.758C383.046 236.677 381.947 238.542 380.758 240.091C373.32 249.812 360.995 254.728 348.833 256.047C336.671 257.366 324.413 255.519 312.27 254.023C294.724 251.855 277.107 250.417 259.421 249.707C246.846 249.198 233.619 248.882 222.791 242.475C220.781 241.29 218.805 239.808 217.841 237.679C215.923 233.444 218.954 228.289 223.117 226.232C227.279 224.174 232.171 224.376 236.813 224.625C282.402 227.08 327.957 230.083 373.622 230.083Z" fill="#000405"/>
<path d="M373.78 61.5311C373.78 61.5311 357.556 82.5126 354.477 86.0279C348.861 92.4158 345.24 100.794 345.24 100.794L337.088 135.487L327.976 133.055L308.164 127.78C308.164 127.78 315.205 108.817 311.795 103.062C307.248 95.3892 311.181 90.5934 312.217 87.2988C314.135 81.1937 304.337 70.034 304.337 70.034L298.06 41.9165L307.536 40.6504L314.413 63.4446L326.197 73.9617L334.589 74.4077C334.589 74.4077 340.919 75.7122 345.523 73.5829C349.926 71.5399 365.479 54.0018 365.479 54.0018L371.823 59.7567L373.78 61.5311ZM296.055 97.1109V222.069C296.055 223.635 295.746 225.185 295.146 226.631C294.546 228.078 293.667 229.391 292.56 230.498C291.452 231.605 290.138 232.482 288.691 233.081C287.244 233.68 285.694 233.987 284.128 233.987H97.2421C95.676 233.987 94.1253 233.678 92.6785 233.079C91.2317 232.479 89.9172 231.601 88.8101 230.493C87.7029 229.385 86.8248 228.071 86.226 226.624C85.6271 225.176 85.3192 223.626 85.3198 222.06V97.1109C85.3186 95.5446 85.626 93.9935 86.2247 92.5462C86.8233 91.0989 87.7014 89.7838 88.8087 88.6761C89.9159 87.5683 91.2307 86.6897 92.6778 86.0905C94.1249 85.4913 95.6759 85.1832 97.2421 85.1838H284.128C287.291 85.1838 290.325 86.4404 292.562 88.6772C294.799 90.9139 296.055 93.9476 296.055 97.1109Z" fill="#4DBA66"/>
<path d="M292.823 88.9975H88.231L89.8903 87.7266C89.9669 87.6602 90.047 87.5978 90.1301 87.5396L187.455 12.9367L190.529 10.582L289.547 86.4893L292.823 88.9975Z" fill="#4DBA66"/>
<path d="M296.055 97.1126L293.566 98.911L275.443 112.037L187.455 175.768L102.834 110.598L85.3198 97.1126L85.5452 94.7963C85.9719 92.6246 86.9986 90.6159 88.509 88.9982C88.933 88.5366 89.395 88.1115 89.8902 87.7273C89.9668 87.6609 90.0469 87.5984 90.13 87.5403C92.1841 86.0079 94.6793 85.1818 97.2421 85.1856H284.128C287.091 85.1871 289.948 86.2913 292.142 88.2832C294.336 90.2751 295.711 93.0122 295.998 95.9616C296.036 96.3441 296.055 96.7282 296.055 97.1126Z" fill="#4DBA66"/>
<path opacity="0.61" d="M89.8903 87.7168C89.3974 88.1037 88.9356 88.5286 88.5091 88.9877H88.231L89.8903 87.7168Z" fill="url(#paint0_linear_175_14558)"/>
<path opacity="0.61" d="M296.055 97.1119L293.566 98.9151L275.443 112.036L187.455 175.767L102.834 110.602L85.3198 97.1119L85.5452 94.8004C85.972 92.6273 86.9987 90.6171 88.509 88.9975C88.9355 88.5384 89.3973 88.1135 89.8902 87.7266L90.13 87.5444L187.455 12.9367L190.529 10.582L289.547 86.4893C291.333 87.3986 292.86 88.7438 293.988 90.4003C295.115 92.0568 295.807 93.971 295.998 95.9658C296.036 96.3466 296.055 96.7291 296.055 97.1119Z" fill="url(#paint1_linear_175_14558)"/>
<path d="M275.443 87.8802V112.041L242.971 135.54L235.523 140.95L187.455 175.767L142.246 140.95L135.249 135.56L102.834 110.622V87.8802C102.834 86.0016 103.581 84.1999 104.909 82.8715C106.237 81.5431 108.039 80.7969 109.918 80.7969H268.365C270.242 80.7981 272.043 81.545 273.37 82.8732C274.698 84.2015 275.443 86.0024 275.443 87.8802Z" fill="white"/>
<path d="M251.646 109.062H123.6C122.885 109.062 122.199 108.778 121.694 108.273C121.188 107.767 120.904 107.082 120.904 106.367C120.904 106.013 120.974 105.663 121.109 105.336C121.245 105.009 121.443 104.712 121.694 104.461C121.944 104.211 122.241 104.012 122.568 103.877C122.895 103.742 123.246 103.672 123.6 103.672H251.646C252 103.672 252.351 103.742 252.678 103.877C253.005 104.012 253.302 104.211 253.552 104.461C253.802 104.712 254.001 105.009 254.136 105.336C254.272 105.663 254.342 106.013 254.342 106.367C254.342 107.082 254.058 107.767 253.552 108.273C253.047 108.778 252.361 109.062 251.646 109.062Z" fill="url(#paint2_linear_175_14558)"/>
<path d="M251.646 125.008H123.6C122.885 125.008 122.199 124.724 121.694 124.218C121.188 123.713 120.904 123.027 120.904 122.312C120.904 121.598 121.188 120.912 121.694 120.407C122.199 119.901 122.885 119.617 123.6 119.617H251.646C252.361 119.617 253.047 119.901 253.552 120.407C254.058 120.912 254.342 121.598 254.342 122.312C254.342 123.027 254.058 123.713 253.552 124.218C253.047 124.724 252.361 125.008 251.646 125.008Z" fill="url(#paint3_linear_175_14558)"/>
<path d="M242.971 135.559L235.523 140.949H142.245L135.244 135.559H242.971Z" fill="url(#paint4_linear_175_14558)"/>
<path opacity="0.05" d="M187.455 175.768L109.351 233.998H267.17L187.455 175.768Z" fill="#000405"/>
<path d="M120.084 44.1721C116.152 35.7364 101.381 37.1224 101.381 37.1224C110.493 31.7463 108.747 18.0928 108.637 17.2871C112.622 29.1902 126.381 26.5621 127.613 26.3031C118.478 28.5571 120.084 44.1721 120.084 44.1721ZM94.4748 61.48C91.9762 56.1184 82.5813 57.0008 82.5813 57.0008C88.528 53.4663 87.1804 44.3688 87.1804 44.3688V44.4215C89.7318 51.9461 98.4601 50.2771 99.237 50.1141C93.4533 51.5528 94.4748 61.48 94.4748 61.48Z" fill="#4DBA66"/>
<path d="M346.041 45.3703C347.199 44.4395 348.664 43.9774 350.147 44.0754C351.231 44.0313 352.293 44.3978 353.12 45.1017C353.756 45.817 354.161 46.7081 354.28 47.6579C354.514 48.8351 354.603 50.0367 354.544 51.2355C354.439 53.4368 353.868 55.7675 354.818 57.7577C355.044 58.2306 355.349 58.6619 355.719 59.0334C356.148 59.5141 356.746 59.8111 357.388 59.8631C357.707 59.8773 358.021 59.7768 358.273 59.5798C358.524 59.3827 358.697 59.1022 358.76 58.7888C358.44 59.4996 357.962 60.1277 357.362 60.6246C356.762 61.1216 356.056 61.4742 355.298 61.6553C354.54 61.8364 353.751 61.8413 352.991 61.6694C352.231 61.4975 351.52 61.1536 350.914 60.664L351.748 62.3569C351.058 62.1783 350.388 61.9242 349.753 61.5991C347.715 60.4913 346.574 58.2421 346.032 55.9689C345.552 53.8828 345.456 51.7295 345.006 49.6337C344.655 48.0271 344.742 46.5309 346.041 45.3703Z" fill="#3F3D56"/>
<path d="M345.427 47.672C345.842 47.6587 346.255 47.7221 346.646 47.8591C346.97 47.9938 347.251 48.2148 347.458 48.4981C347.665 48.7813 347.79 49.116 347.821 49.4657C347.838 49.8171 347.754 50.166 347.576 50.4701C347.399 50.7741 347.137 51.02 346.823 51.1777C346.413 51.3464 345.971 51.4233 345.528 51.4031C345.125 51.4031 344.718 51.4031 344.315 51.3648C344.2 51.3651 344.086 51.3371 343.984 51.2832C343.881 51.1988 343.803 51.0876 343.759 50.9619C343.496 50.4394 343.298 49.8871 343.169 49.317C342.838 47.5521 344.027 47.6577 345.427 47.672Z" fill="#4DBA66"/>
<path d="M337.625 64.5098C337.625 64.5098 337.548 65.8957 337.452 67.6989C337.371 69.2192 337.27 71.056 337.188 72.581C337.049 75.1608 335.94 77.5927 334.085 79.391C333.002 80.4988 330.417 82.5658 328.446 81.8321C327.487 81.4772 327.453 80.2686 327.654 79.5445C328.098 78.2242 328.345 76.8459 328.388 75.4537C328.42 74.3267 328.318 73.1999 328.086 72.0967C326.849 69.013 337.625 64.5098 337.625 64.5098Z" fill="url(#paint5_linear_175_14558)"/>
<path d="M337.625 64.5098C337.625 64.5098 337.548 65.8957 337.452 67.6989C336.694 69.3871 335.984 70.7634 335.596 71.4492C334.814 72.8352 331.601 75.0173 328.402 75.4537C328.434 74.3267 328.332 73.1999 328.1 72.0967C326.849 69.013 337.625 64.5098 337.625 64.5098Z" fill="url(#paint6_linear_175_14558)"/>
<path d="M328.239 46.1465C326.827 46.2324 325.448 46.6081 324.187 47.2504C322.926 47.8926 321.811 48.7875 320.911 49.8794C320.012 50.9713 319.346 52.2368 318.957 53.5971C318.567 54.9573 318.462 56.3832 318.648 57.7858C318.968 61.9759 320.044 66.0735 321.823 69.8807C325.18 75.6357 333.687 70.9022 335.035 68.5331C336.383 66.164 341.552 55.4791 339.38 52.453C337.884 50.41 333.735 45.9259 328.239 46.1465Z" fill="url(#paint7_linear_175_14558)"/>
<path d="M325.218 40.302C328.828 39.2476 332.678 39.3601 336.22 40.6233C339.706 41.9469 342.713 44.6709 344.042 48.1574C345.185 51.3885 345.075 54.9304 343.735 58.0847C342.385 61.2132 340.235 63.9309 337.5 65.9641C336.795 63.806 338.968 61.8877 339.812 59.7824C340.008 59.3933 340.05 58.945 339.932 58.5259C339.625 57.7442 338.455 57.6578 337.788 58.1662C337.121 58.6745 336.829 59.533 336.584 60.3339C337.232 56.9049 337.711 52.8765 335.285 50.3635C333.846 48.8768 331.673 48.3205 329.602 48.3013C327.699 48.2957 325.816 48.6805 324.068 49.432C322.32 50.1835 320.744 51.2856 319.439 52.6703C318.677 53.4903 317.593 54.4974 316.624 53.9315C316.323 53.7254 316.087 53.4376 315.943 53.1019C313.08 47.4333 320.6 41.5681 325.218 40.302Z" fill="#3F3D56"/>
<path d="M329.851 46.6351C327.453 45.58 324.935 44.7168 322.331 44.7168C319.727 44.7168 317.027 45.5992 315.305 47.5559C314.406 48.6463 313.752 49.917 313.387 51.2822C313.098 52.1363 312.984 53.0399 313.051 53.939C313.156 54.5911 313.316 55.2329 313.531 55.8573C313.982 57.4112 314.173 59.2144 313.19 60.5188C313.008 60.7789 312.769 60.9943 312.492 61.1488C312.214 61.3033 311.906 61.3929 311.589 61.4108C311.271 61.4165 310.962 61.306 310.721 61.1003C310.479 60.8946 310.32 60.6077 310.275 60.2934C309.853 61.4876 310.543 62.8879 311.641 63.5162C312.207 63.8042 312.827 63.9689 313.461 63.9995C314.096 64.0301 314.729 63.9258 315.32 63.6936C315.816 63.5369 316.277 63.2844 316.677 62.9503C317.071 62.5703 317.396 62.1239 317.636 61.6314C318.638 59.8139 319.142 57.7948 319.89 55.8334C320.638 53.8719 321.722 51.9968 323.492 50.8937C324.894 50.1284 326.469 49.7369 328.067 49.7571C329.654 49.7044 331.251 49.8339 332.834 49.69C334.416 49.5461 333.27 48.6062 332.589 48.1122C331.73 47.527 330.812 47.032 329.851 46.6351Z" fill="#3F3D56"/>
<path d="M394.263 29.4417C394.67 29.7582 390.853 32.7316 390.853 32.7316C390.853 32.7316 389.069 35.8057 387.256 36.6593C385.443 37.513 371.823 59.7509 371.823 59.7509L366.447 54.8784L378.043 39.2778C378.043 39.2778 381.88 31.9259 381.453 28.7271C381.453 28.7271 381.683 24.9481 382.839 26.7033C383.654 27.955 383.132 29.9261 384.096 30.1371C384.202 30.1467 384.31 30.1233 384.403 30.0699C385.202 29.5845 385.936 28.9978 386.585 28.3243C388.503 26.4971 390.795 23.9553 390.795 23.9553C390.795 23.9553 392.052 23.423 391.894 23.9553C391.735 24.4877 389.429 28.0797 389.299 28.2715C389.515 28.0749 393.054 24.9145 393.615 25.1591C394.176 25.4037 390.872 29.0436 390.68 29.2547C390.886 29.1108 394.661 26.4827 394.944 26.7177C395.476 27.1637 392.066 30.1227 391.783 30.3481C391.999 30.233 393.874 29.1348 394.263 29.4417Z" fill="url(#paint8_linear_175_14558)"/>
<path d="M390.215 31.7225C389.929 31.8157 389.625 31.8403 389.328 31.7944C388.361 31.7208 387.391 31.7048 386.422 31.7464C385.77 31.7752 384.422 32.226 384.388 31.2141C384.388 30.9455 384.456 30.6818 384.441 30.4132C384.441 30.2981 384.412 30.183 384.393 30.0679C385.193 29.5825 385.926 28.9958 386.575 28.3223C386.869 28.4204 387.147 28.561 387.4 28.7395C388.04 29.1519 388.669 29.5596 389.29 29.9624C389.625 30.183 389.961 30.4036 390.282 30.6434C390.425 30.7322 390.538 30.8605 390.609 31.0127C390.64 31.1585 390.617 31.3106 390.545 31.4411C390.472 31.5715 390.355 31.6714 390.215 31.7225Z" fill="url(#paint9_linear_175_14558)"/>
<path d="M296.568 4.47186C296.051 4.52941 297.729 9.06619 297.729 9.06619C297.729 9.06619 297.624 12.6199 298.712 14.2984C299.801 15.9769 299.647 41.7061 299.647 41.7061L306.783 40.747L305.162 21.3673C305.162 21.3673 305.781 13.0994 307.829 10.6104C307.829 10.6104 309.623 7.27738 307.719 8.1598C306.366 8.79284 305.767 10.7399 304.841 10.4138C304.745 10.366 304.666 10.2888 304.616 10.1932C304.18 9.36212 303.858 8.47669 303.657 7.56033C302.98 4.99459 302.386 1.62797 302.386 1.62797C302.386 1.62797 301.618 0.524946 301.494 1.05727C301.369 1.5896 301.412 5.85304 301.417 6.09762C301.335 5.82426 300.002 1.2587 299.379 1.17717C298.755 1.09564 299.662 5.92497 299.719 6.20313C299.614 5.97293 297.801 1.75266 297.427 1.80062C296.741 1.90133 298.103 6.22711 298.204 6.54842C298.07 6.33741 297.058 4.4239 296.568 4.47186Z" fill="url(#paint10_linear_175_14558)"/>
<path d="M298.794 8.54139C298.988 8.76897 299.232 8.94798 299.508 9.06413C300.369 9.51272 301.201 10.0124 302.002 10.5604C302.544 10.9297 303.441 12.0327 304.011 11.1791C304.165 10.9585 304.237 10.6995 304.39 10.4741C304.46 10.3787 304.535 10.2875 304.616 10.2007C304.18 9.36965 303.858 8.48422 303.657 7.56785C303.355 7.4966 303.045 7.47074 302.736 7.49112L300.487 7.53428C300.084 7.53428 299.681 7.53428 299.278 7.58703C299.107 7.58627 298.94 7.63636 298.798 7.73091C298.7 7.84282 298.646 7.98638 298.645 8.13525C298.644 8.28413 298.697 8.42833 298.794 8.54139Z" fill="url(#paint11_linear_175_14558)"/>
<path d="M271.28 230.732C269.362 234.651 267.966 237.696 267.966 237.696L243.829 238.847C243.829 238.847 247.829 228.263 254.337 230.996C256.538 231.917 264.513 230.186 264.513 230.186L264.763 229.385L271.28 230.732Z" fill="url(#paint12_linear_175_14558)"/>
<path d="M356.827 231.915L353.13 233.987L321.478 200.714L317.986 156.295L289.125 182.475C289.125 182.475 289.898 200.503 279.807 214.607C277.999 217.134 274.321 224.477 271.539 230.212C271.453 230.39 271.367 230.572 271.285 230.749L270.743 230.639L268.859 230.246L264.768 229.402L278.033 175.785L308.174 127.799L327.986 133.074L337.097 135.506C337.097 135.506 343.246 147.826 337.097 179.713L333.021 197.966C333.021 197.966 349.451 206.727 354.516 224.059L356.822 231.905L356.827 231.915Z" fill="#3F3D56"/>
<path d="M356.827 231.914L360.582 235.842L351.053 245.779H338.584C338.584 245.779 341.241 241.39 346.555 240.695C351.868 240 353.139 233.981 353.139 233.981L356.827 231.914Z" fill="url(#paint13_linear_175_14558)"/>
<path opacity="0.22" d="M103.496 36.4318L101.39 37.1224C110.502 31.7463 108.757 18.0928 108.646 17.2871C108.79 17.9345 110.91 26.9458 109.754 29.9048C108.311 33.6023 103.496 36.4318 103.496 36.4318ZM88.437 52.9196C87.3244 54.459 82.9027 56.833 82.6006 56.9912C88.5473 53.4567 87.1997 44.3592 87.1997 44.3592V44.4119C87.4347 45.0354 89.5209 51.4137 88.437 52.9196Z" fill="white"/>
<path opacity="0.22" d="M85.6747 103.67L183.35 178.824L187.455 175.765L85.3198 97.1094L85.6747 103.67ZM190.687 178.34L296.055 102.5V97.3252L187.455 175.976L190.687 178.34Z" fill="white"/>
<path opacity="0.22" d="M295.998 96.1758L295.71 96.9815L293.566 99.1252C295.072 96.5259 290.818 90.4928 290.818 90.4928L289.121 89.2219L284.023 85.3853L187.455 13.1516L190.529 10.7969L289.547 86.6994C291.332 87.6097 292.859 88.9552 293.986 90.6115C295.114 92.2678 295.805 94.1815 295.998 96.1758Z" fill="white"/>
<path opacity="0.61" d="M373.78 61.5312C373.78 61.5312 357.556 82.5126 354.477 86.0279C348.861 92.4159 345.241 100.794 345.241 100.794L337.088 135.487L327.976 133.055C327.976 133.055 336.484 101.245 339.903 94.4924C343.322 87.74 371.814 59.752 371.814 59.752L373.78 61.5312Z" fill="url(#paint14_linear_175_14558)"/>
<path d="M356.822 231.907C356.654 231.427 351.24 216.388 343.111 210.081C334.858 203.674 330.062 194.831 330.062 194.831C328.12 177.854 327.985 133.057 327.985 133.057L337.097 135.488C337.097 135.488 343.245 147.808 337.097 179.695L333.021 197.948C333.021 197.948 349.451 206.729 354.515 224.061L356.822 231.907ZM289.125 182.467C289.125 182.467 289.897 200.495 279.807 214.599C277.999 217.126 274.321 224.469 271.539 230.204L270.743 230.631L268.858 230.238L284.502 180.894C284.502 180.894 303.45 158.445 306.918 156.297C310.385 154.148 317.986 156.297 317.986 156.297L289.125 182.467Z" fill="#25233A"/>
<defs>
<linearGradient id="paint0_linear_175_14558" x1="88.3077" y1="90.412" x2="90.1445" y2="85.4196" gradientUnits="userSpaceOnUse">
<stop offset="0.36" stop-color="#00272E"/>
<stop offset="0.75" stop-color="#3F80A1" stop-opacity="0.25"/>
<stop offset="1" stop-color="#69B9EB" stop-opacity="0"/>
</linearGradient>
<linearGradient id="paint1_linear_175_14558" x1="164.479" y1="167.317" x2="218.354" y2="20.8162" gradientUnits="userSpaceOnUse">
<stop offset="0.36" stop-color="#00272E"/>
<stop offset="0.75" stop-color="#3F80A1" stop-opacity="0.25"/>
<stop offset="1" stop-color="#69B9EB" stop-opacity="0"/>
</linearGradient>
<linearGradient id="paint2_linear_175_14558" x1="188.736" y1="51.9257" x2="183.882" y2="289.009" gradientUnits="userSpaceOnUse">
<stop offset="0.0099" stop-color="#ACFFBF"/>
<stop offset="0.01" stop-color="#B6FFC7"/>
<stop offset="0.12" stop-color="#92FFAB"/>
<stop offset="0.24" stop-color="#82FF9E"/>
<stop offset="0.37" stop-color="#64FF87"/>
<stop offset="0.5" stop-color="#41E967"/>
<stop offset="0.63" stop-color="#30CB54"/>
<stop offset="0.79" stop-color="#27A043"/>
<stop offset="0.99" stop-color="#10802A"/>
</linearGradient>
<linearGradient id="paint3_linear_175_14558" x1="188.736" y1="67.8709" x2="183.882" y2="304.954" gradientUnits="userSpaceOnUse">
<stop offset="0.0099" stop-color="#ACFFBF"/>
<stop offset="0.01" stop-color="#B6FFC7"/>
<stop offset="0.12" stop-color="#92FFAB"/>
<stop offset="0.24" stop-color="#82FF9E"/>
<stop offset="0.37" stop-color="#64FF87"/>
<stop offset="0.5" stop-color="#41E967"/>
<stop offset="0.63" stop-color="#30CB54"/>
<stop offset="0.79" stop-color="#27A043"/>
<stop offset="0.99" stop-color="#10802A"/>
</linearGradient>
<linearGradient id="paint4_linear_175_14558" x1="190.005" y1="83.8124" x2="183.995" y2="320.842" gradientUnits="userSpaceOnUse">
<stop offset="0.0099" stop-color="#ACFFBF"/>
<stop offset="0.01" stop-color="#B6FFC7"/>
<stop offset="0.12" stop-color="#92FFAB"/>
<stop offset="0.24" stop-color="#82FF9E"/>
<stop offset="0.37" stop-color="#64FF87"/>
<stop offset="0.5" stop-color="#41E967"/>
<stop offset="0.63" stop-color="#30CB54"/>
<stop offset="0.79" stop-color="#27A043"/>
<stop offset="0.99" stop-color="#10802A"/>
</linearGradient>
<linearGradient id="paint5_linear_175_14558" x1="327.558" y1="73.2476" x2="337.625" y2="73.2476" gradientUnits="userSpaceOnUse">
<stop stop-color="#ECC4D7"/>
<stop offset="0.42" stop-color="#EFD4D1"/>
<stop offset="1" stop-color="#F2EAC9"/>
</linearGradient>
<linearGradient id="paint6_linear_175_14558" x1="332.891" y1="67.6462" x2="330.815" y2="90.9296" gradientUnits="userSpaceOnUse">
<stop stop-color="#ECC4D7"/>
<stop offset="0.42" stop-color="#EFD4D1"/>
<stop offset="1" stop-color="#F2EAC9"/>
</linearGradient>
<linearGradient id="paint7_linear_175_14558" x1="318.566" y1="59.378" x2="339.912" y2="59.378" gradientUnits="userSpaceOnUse">
<stop stop-color="#ECC4D7"/>
<stop offset="0.42" stop-color="#EFD4D1"/>
<stop offset="1" stop-color="#F2EAC9"/>
</linearGradient>
<linearGradient id="paint8_linear_175_14558" x1="366.447" y1="41.7332" x2="395.011" y2="41.7332" gradientUnits="userSpaceOnUse">
<stop stop-color="#ECC4D7"/>
<stop offset="0.42" stop-color="#EFD4D1"/>
<stop offset="1" stop-color="#F2EAC9"/>
</linearGradient>
<linearGradient id="paint9_linear_175_14558" x1="388.441" y1="38.355" x2="385.554" y2="15.9396" gradientUnits="userSpaceOnUse">
<stop stop-color="#ECC4D7"/>
<stop offset="0.42" stop-color="#EFD4D1"/>
<stop offset="1" stop-color="#F2EAC9"/>
</linearGradient>
<linearGradient id="paint10_linear_175_14558" x1="313.968" y1="29.6771" x2="289.749" y2="14.5433" gradientUnits="userSpaceOnUse">
<stop stop-color="#ECC4D7"/>
<stop offset="0.42" stop-color="#EFD4D1"/>
<stop offset="1" stop-color="#F2EAC9"/>
</linearGradient>
<linearGradient id="paint11_linear_175_14558" x1="297.031" y1="15.2858" x2="311.357" y2="-2.19366" gradientUnits="userSpaceOnUse">
<stop stop-color="#ECC4D7"/>
<stop offset="0.42" stop-color="#EFD4D1"/>
<stop offset="1" stop-color="#F2EAC9"/>
</linearGradient>
<linearGradient id="paint12_linear_175_14558" x1="255.536" y1="226.368" x2="259.233" y2="241.772" gradientUnits="userSpaceOnUse">
<stop stop-color="#68E1FD"/>
<stop offset="0.01" stop-color="#67DDF9"/>
<stop offset="0.12" stop-color="#5CB3CE"/>
<stop offset="0.24" stop-color="#538EA9"/>
<stop offset="0.37" stop-color="#4C718B"/>
<stop offset="0.5" stop-color="#465A73"/>
<stop offset="0.63" stop-color="#424A63"/>
<stop offset="0.79" stop-color="#404059"/>
<stop offset="0.99" stop-color="#3F3D56"/>
</linearGradient>
<linearGradient id="paint13_linear_175_14558" x1="346.675" y1="236.748" x2="352.837" y2="245.371" gradientUnits="userSpaceOnUse">
<stop stop-color="#68E1FD"/>
<stop offset="0.01" stop-color="#67DDF9"/>
<stop offset="0.12" stop-color="#5CB3CE"/>
<stop offset="0.24" stop-color="#538EA9"/>
<stop offset="0.37" stop-color="#4C718B"/>
<stop offset="0.5" stop-color="#465A73"/>
<stop offset="0.63" stop-color="#424A63"/>
<stop offset="0.79" stop-color="#404059"/>
<stop offset="0.99" stop-color="#3F3D56"/>
</linearGradient>
<linearGradient id="paint14_linear_175_14558" x1="369.224" y1="107.537" x2="332.872" y2="86.589" gradientUnits="userSpaceOnUse">
<stop/>
<stop offset="0.98" stop-opacity="0"/>
</linearGradient>
</defs>
</svg>
