<svg width="25" height="25" viewBox="0 0 25 25" fill="none" xmlns="http://www.w3.org/2000/svg">
<path d="M12.1039 24.2556C18.7353 24.2556 24.21 18.7706 24.21 12.1456C24.21 11.0979 24.0694 10.0876 23.7966 9.12207C23.0556 9.48034 22.2635 9.63814 21.4678 9.6004C21.6947 10.4051 21.8257 11.2684 21.8257 12.1456C21.8353 17.542 17.4976 21.8701 12.1039 21.8701C6.71027 21.8701 2.39391 17.542 2.39391 12.1456C2.39391 6.74921 6.70066 2.42109 12.0944 2.42109C13.3917 2.42109 14.6167 2.66822 15.7416 3.12849C15.8208 2.32097 16.0859 1.56879 16.5333 0.895392C15.1658 0.339224 13.6673 0.0355835 12.0944 0.0355835C5.47476 0.0355835 0 5.51098 0 12.1456C0 18.7706 5.48436 24.2556 12.1039 24.2556ZM6.18015 13.5996H12.0944C12.6167 13.5996 13.0285 13.1951 13.0285 12.665V4.9848C13.0285 4.46216 12.6167 4.05981 12.0944 4.05981C11.5741 4.05981 11.1698 4.46216 11.1698 4.9848V11.74H6.18015C5.65028 11.74 5.24601 12.1444 5.24601 12.665C5.24601 13.1951 5.65028 13.5996 6.18015 13.5996Z" fill="black"/>
</svg>
