<svg width="22" height="22" viewBox="0 0 20 24" fill="none" xmlns="http://www.w3.org/2000/svg">
<path d="M0.548096 20.3697C0.548096 22.765 1.78303 24 4.14892 24H15.9602C18.3373 24 19.5611 22.765 19.5611 20.3697V3.63926C19.5611 1.25315 18.3373 0 15.9602 0H4.14892C1.78303 0 0.548096 1.25315 0.548096 3.63926V20.3697ZM2.7204 20.2347V3.77431C2.7204 2.74136 3.26123 2.17232 4.34052 2.17232H15.7797C16.857 2.17232 17.3888 2.74136 17.3888 3.77431V20.2347C17.3888 21.2677 16.857 21.8276 15.7797 21.8276H4.34052C3.26123 21.8276 2.7204 21.2677 2.7204 20.2347Z" fill="#1C1C1E"/>
<path d="M5.147 17.5474H14.966C15.4494 17.5474 15.6841 17.2231 15.6841 16.781C15.6841 15.5844 13.9065 12.4953 10.0566 12.4953C6.20661 12.4953 4.42896 15.5844 4.42896 16.781C4.42896 17.2231 4.67269 17.5474 5.147 17.5474ZM10.0566 11.6181C11.6222 11.6271 12.8722 10.3034 12.8722 8.54934C12.8722 6.90611 11.6222 5.53809 10.0566 5.53809C8.50201 5.53809 7.24995 6.90611 7.24995 8.54934C7.24995 10.3034 8.50201 11.609 10.0566 11.6181Z" fill="#1C1C1E"/>
</svg>
