<svg width="30" height="33" viewBox="0 0 30 33" fill="none" xmlns="http://www.w3.org/2000/svg">
<g filter="url(#filter0_d_4974_34641)">
<path d="M25.5 19.1567V23.2821C25.5 23.8946 25.0264 24.4028 24.4156 24.446C23.9053 24.482 23.489 24.5 23.1667 24.5C12.8573 24.5 4.5 16.1427 4.5 5.83333C4.5 5.51099 4.51803 5.09468 4.55408 4.58442C4.59727 3.97353 5.10543 3.5 5.71784 3.5H9.84345C10.1429 3.5 10.3937 3.72682 10.4238 4.02477C10.4508 4.29225 10.4759 4.507 10.4991 4.66902C10.7351 6.31717 11.2171 7.88592 11.9068 9.33687C12.0175 9.56976 11.9453 9.84852 11.7355 9.9984L9.21747 11.7971C10.7504 15.3779 13.622 18.2496 17.2029 19.7826L18.9983 17.2689C19.1501 17.0565 19.4322 16.9835 19.6678 17.0954C21.1187 17.7845 22.6873 18.266 24.3352 18.5015C24.4962 18.5246 24.7096 18.5494 24.9752 18.5762C25.2732 18.6063 25.5 18.8572 25.5 19.1567Z" fill="#1C1C1E"/>
</g>
<defs>
<filter id="filter0_d_4974_34641" x="-3" y="0" width="36" height="36" filterUnits="userSpaceOnUse" color-interpolation-filters="sRGB">
<feFlood flood-opacity="0" result="BackgroundImageFix"/>
<feColorMatrix in="SourceAlpha" type="matrix" values="0 0 0 0 0 0 0 0 0 0 0 0 0 0 0 0 0 0 127 0" result="hardAlpha"/>
<feOffset dy="4"/>
<feGaussianBlur stdDeviation="2"/>
<feComposite in2="hardAlpha" operator="out"/>
<feColorMatrix type="matrix" values="0 0 0 0 0 0 0 0 0 0 0 0 0 0 0 0 0 0 0.25 0"/>
<feBlend mode="normal" in2="BackgroundImageFix" result="effect1_dropShadow_4974_34641"/>
<feBlend mode="normal" in="SourceGraphic" in2="effect1_dropShadow_4974_34641" result="shape"/>
</filter>
</defs>
</svg>
