<svg width="28" height="28" viewBox="0 0 29 29" fill="none" xmlns="http://www.w3.org/2000/svg">
<path d="M0.848877 14.8717C0.848877 13.2136 2.013 12.0393 3.66077 12.0393H12.0256V3.66934C12.0256 2.02672 13.1816 0.833984 14.8111 0.833984C16.4692 0.833984 17.6436 2.02672 17.6436 3.66934V12.0393H26.0369C27.6613 12.0393 28.8489 13.2136 28.8489 14.8717C28.8489 16.5064 27.6613 17.6339 26.0369 17.6339H17.6436V26.0272C17.6436 27.6699 16.4692 28.834 14.8111 28.834C13.1816 28.834 12.0256 27.6462 12.0256 26.0272V17.6339H3.66077C2.013 17.6339 0.848877 16.5064 0.848877 14.8717Z" fill="black"/>
</svg>
