<svg width="22" height="22" viewBox="0 0 20 21" fill="none" xmlns="http://www.w3.org/2000/svg">
<path d="M3.21807 18.9681H14.2982C16.1211 18.9681 17.1802 17.909 17.1802 15.8798V5.82904L15.3155 7.6921V15.7234C15.3155 16.6472 14.8274 17.105 14.1902 17.105H3.33218C2.448 17.105 1.95998 16.6472 1.95998 15.7234V5.13733C1.95998 4.21169 2.448 3.74782 3.33218 3.74782H11.4611L13.3242 1.88477H3.21807C1.17167 1.88477 0.0969238 2.94391 0.0969238 4.97302V15.8798C0.0969238 17.9167 1.17167 18.9681 3.21807 18.9681Z" fill="#4DBA66" fill-opacity="0.54"/>
<path d="M6.80957 12.618L8.7443 11.7995L17.4275 3.1241L15.9758 1.68973L7.30216 10.3634L6.44461 12.2436C6.35142 12.4583 6.59124 12.7061 6.80957 12.618ZM18.1535 2.40596L18.8176 1.72452C19.1837 1.34282 19.1922 0.821331 18.8296 0.469866L18.58 0.214256C18.2562 -0.106208 17.7218 -0.0561893 17.3668 0.2909L16.7018 0.949899L18.1535 2.40596Z" fill="#4DBA66"/>
</svg>
