<svg width="22" height="22" viewBox="0 0 19 20" fill="none" xmlns="http://www.w3.org/2000/svg">
<path fill-rule="evenodd" clip-rule="evenodd" d="M4.11169 1.25229C7.64568 0.85731 11.2991 0.85731 14.833 1.25229C16.8052 1.4727 18.3962 3.02651 18.6278 5.00645C19.0503 8.61939 19.0503 12.2692 18.6278 15.8821C18.3962 17.862 16.8052 19.4158 14.833 19.6362C11.2991 20.0312 7.64568 20.0312 4.11169 19.6362C2.13955 19.4158 0.548489 17.862 0.316917 15.8821C-0.105639 12.2692 -0.105639 8.61939 0.316917 5.00645C0.548489 3.02651 2.13955 1.4727 4.11169 1.25229ZM9.47237 4.69535C9.94931 4.69535 10.336 5.082 10.336 5.55895V9.58064H14.3577C14.8347 9.58064 15.2213 9.9673 15.2213 10.4442C15.2213 10.9212 14.8347 11.3078 14.3577 11.3078H10.336V15.3295C10.336 15.8065 9.94931 16.1931 9.47237 16.1931C8.99543 16.1931 8.60877 15.8065 8.60877 15.3295V11.3078H4.58713C4.11016 11.3078 3.72352 10.9212 3.72352 10.4442C3.72352 9.9673 4.11016 9.58064 4.58713 9.58064H8.60877V5.55895C8.60877 5.082 8.99543 4.69535 9.47237 4.69535Z" fill="#1C1C1E"/>
</svg>
