<svg width="22" height="22" viewBox="0 0 19 21" fill="none" xmlns="http://www.w3.org/2000/svg">
<path d="M3.12115 18.9681H14.2013C16.0242 18.9681 17.0833 17.909 17.0833 15.8798V5.82904L15.2186 7.6921V15.7234C15.2186 16.6472 14.7305 17.105 14.0932 17.105H3.23525C2.35108 17.105 1.86305 16.6472 1.86305 15.7234V5.13733C1.86305 4.21169 2.35108 3.74782 3.23525 3.74782H11.3642L13.2273 1.88477H3.12115C1.07474 1.88477 0 2.94391 0 4.97302V15.8798C0 17.9167 1.07474 18.9681 3.12115 18.9681Z" fill="#1C1C1E" fill-opacity="0.5"/>
<path d="M6.71265 12.618L8.64738 11.7995L17.3306 3.1241L15.8789 1.68973L7.20524 10.3634L6.34768 12.2436C6.2545 12.4583 6.49432 12.7061 6.71265 12.618ZM18.0565 2.40596L18.7206 1.72452C19.0868 1.34282 19.0953 0.821331 18.7326 0.469866L18.4831 0.214256C18.1593 -0.106208 17.6248 -0.0561893 17.2699 0.2909L16.6048 0.949899L18.0565 2.40596Z" fill="#1C1C1E"/>
</svg>
