<svg width="20" height="25" viewBox="0 0 20 25" fill="none" xmlns="http://www.w3.org/2000/svg">
<path d="M9.89648 24.4194C10.103 24.4194 10.4203 24.3386 10.7175 24.1766C17.4572 20.4974 19.793 18.8141 19.793 14.5389V5.67946C19.793 4.2908 19.2551 3.80072 18.0923 3.30502C16.7897 2.76244 12.3987 1.21814 11.1213 0.781971C10.7332 0.657519 10.29 0.57666 9.89648 0.57666C9.50296 0.57666 9.05977 0.678847 8.68125 0.781971C7.40391 1.14666 3.00328 2.77205 1.70062 3.30502C0.5475 3.79111 0 4.2908 0 5.67946V14.5389C0 18.8141 2.34539 20.4878 9.07546 24.1766C9.38226 24.3386 9.68999 24.4194 9.89648 24.4194ZM9.89648 21.9587C9.72796 21.9587 9.56155 21.8969 9.22054 21.6901C3.86343 18.4237 2.20077 17.545 2.20077 14.1011V6.05329C2.20077 5.64009 2.27952 5.47509 2.61186 5.34407C4.34671 4.65571 7.71515 3.53141 9.2843 2.91477C9.54773 2.81586 9.7296 2.78188 9.89648 2.78188C10.0634 2.78188 10.2431 2.82547 10.5087 2.91477C12.0778 3.53141 15.427 4.72298 17.1907 5.34407C17.5113 5.46548 17.5922 5.64009 17.5922 6.05329V14.1011C17.5922 17.564 15.8705 18.4942 10.5724 21.6901C10.241 21.8948 10.065 21.9587 9.89648 21.9587Z" fill="black"/>
<path d="M9.9007 13.8307C10.5253 13.8307 10.8956 13.4785 10.9158 12.7995L11.0979 7.10132C11.1201 6.4193 10.6008 5.92969 9.88898 5.92969C9.16547 5.92969 8.66742 6.40969 8.68969 7.09171L8.85047 12.8037C8.87062 13.4689 9.24515 13.8307 9.9007 13.8307ZM9.9007 17.7153C10.6425 17.7153 11.2601 17.1678 11.2601 16.429C11.2601 15.6924 10.6521 15.1428 9.9007 15.1428C9.13968 15.1428 8.52539 15.6999 8.52539 16.429C8.52539 17.1582 9.14929 17.7153 9.9007 17.7153Z" fill="black"/>
</svg>
