<svg width="28" height="28" viewBox="0 0 28 28" fill="none" xmlns="http://www.w3.org/2000/svg">
<path d="M2 14.384C2 21.0138 7.48484 26.489 14.105 26.489C20.7369 26.489 26.2121 21.0138 26.2121 14.384C26.2121 8.57619 22.0135 3.65783 16.5101 2.52908V0.886115C16.5101 -0.00497597 15.8558 -0.244507 15.1365 0.261038L11.202 2.97346C10.5997 3.38642 10.5943 4.04806 11.202 4.46853L15.1269 7.19266C15.8537 7.70782 16.5101 7.47462 16.5101 6.56759V4.98368C20.731 6.03368 23.8159 9.82563 23.8159 14.384C23.8159 19.7781 19.4991 24.1045 14.105 24.1045C8.71085 24.1045 4.37491 19.7781 4.38452 14.384C4.39412 11.2415 5.87421 8.4836 8.1889 6.72133C8.73476 6.24837 8.91452 5.57103 8.50765 4.99658C8.12188 4.45494 7.37188 4.35345 6.74868 4.86368C3.89516 7.00236 2 10.5899 2 14.384Z" fill="black"/>
<path d="M13.6135 18.9574H20.5501C21.4651 18.9574 21.7773 18.6827 21.7773 18.1703C21.7773 16.7456 19.9691 14.7794 17.0877 14.7794C14.1945 14.7794 12.3746 16.7456 12.3746 18.1703C12.3746 18.6827 12.6985 18.9574 13.6135 18.9574ZM17.0877 13.8032C18.3034 13.8032 19.321 12.7089 19.321 11.313C19.321 9.9468 18.2937 8.91766 17.0877 8.91766C15.8741 8.91766 14.8426 9.97563 14.8447 11.3226C14.8564 12.7089 15.8698 13.8032 17.0877 13.8032ZM7.57486 18.9574H11.7643C11.1709 18.1199 11.8299 16.4287 13.0773 15.4638C12.458 15.0672 11.6567 14.7698 10.6548 14.7698C8.16103 14.7698 6.56189 16.6071 6.56189 18.1099C6.56189 18.6529 6.83892 18.9574 7.57486 18.9574ZM10.6548 13.9162C11.7106 13.9162 12.6036 12.9721 12.6036 11.7595C12.6036 10.5766 11.7106 9.6625 10.6548 9.6625C9.61065 9.6625 8.69635 10.5958 8.69635 11.7691C8.70596 12.9721 9.59893 13.9162 10.6548 13.9162Z" fill="black"/>
</svg>
