<svg width="22" height="22" viewBox="0 0 26 22" fill="none" xmlns="http://www.w3.org/2000/svg">
<path d="M13.7299 21.7959C14.3611 21.7959 14.8678 21.5426 15.4788 20.9709L24.7544 12.2552C25.2103 11.8249 25.3859 11.3248 25.3859 10.898C25.3859 10.4531 25.222 9.97312 24.7566 9.5332L15.4788 0.884763C14.805 0.254531 14.3719 0 13.7491 0C12.8276 0 12.1531 0.722575 12.1531 1.6153V5.8193H11.8617C3.73547 5.8193 0 11.0424 0 19.5591C0 20.9909 0.620623 21.7474 1.43062 21.7474C2.03038 21.7474 2.60952 21.5627 3.06397 20.7157C4.91741 17.2528 7.55648 16.0052 11.8617 16.0052H12.1531V20.2308C12.1531 21.1235 12.8276 21.7959 13.7299 21.7959Z" fill="black"/>
</svg>
