<svg width="13" height="11" viewBox="0 0 13 11" fill="none" xmlns="http://www.w3.org/2000/svg">
<path d="M7.81228 1.45118C8.52745 1.45118 9.1072 0.871416 9.1072 0.15625H9.70486C9.70486 0.871416 10.2846 1.45118 10.9998 1.45118V2.04883C10.2846 2.04883 9.70486 2.62859 9.70486 3.34376H9.1072C9.1072 2.62859 8.52745 2.04883 7.81228 2.04883V1.45118ZM0.906006 4.93752C2.66642 4.93752 4.09352 3.51042 4.09352 1.75001H5.15602C5.15602 3.51042 6.58312 4.93752 8.34353 4.93752V6.00002C6.58312 6.00002 5.15602 7.42712 5.15602 9.18753H4.09352C4.09352 7.42712 2.66642 6.00002 0.906006 6.00002V4.93752ZM9.53884 6.53127C9.53884 7.48481 8.76582 8.25784 7.81228 8.25784V9.05472C8.76582 9.05472 9.53884 9.82774 9.53884 10.7813H10.3357C10.3357 9.82774 11.1087 9.05472 12.0623 9.05472V8.25784C11.1087 8.25784 10.3357 7.48481 10.3357 6.53127H9.53884Z" fill="black"/>
</svg>
