<svg width="21" height="26" viewBox="0 0 21 26" fill="none" xmlns="http://www.w3.org/2000/svg">
<path d="M10.301 16.9135C10.942 16.9135 11.4481 16.3962 11.4481 15.7889V4.62197L11.3581 2.95761L12.0104 3.80104L13.4836 5.37543C13.686 5.60035 13.9671 5.7128 14.2483 5.7128C14.7993 5.7128 15.2604 5.30796 15.2604 4.73443C15.2604 4.44204 15.1479 4.21713 14.9455 4.01471L11.1894 0.404844C10.8858 0.112457 10.6047 0 10.301 0C9.9974 0 9.70502 0.112457 9.41263 0.404844L5.65657 4.01471C5.44291 4.21713 5.33045 4.44204 5.33045 4.73443C5.33045 5.30796 5.79152 5.7128 6.34256 5.7128C6.6237 5.7128 6.91609 5.60035 7.10727 5.37543L8.5917 3.80104L9.24394 2.95761L9.14273 4.62197V15.7889C9.14273 16.3962 9.66003 16.9135 10.301 16.9135ZM3.81228 26H16.7898C19.2863 26 20.6021 24.6843 20.6021 22.2215V11.2682C20.6021 8.80536 19.2863 7.48962 16.7898 7.48962H13.8097V9.9974H16.5761C17.5545 9.9974 18.0943 10.5035 18.0943 11.5268V21.9628C18.0943 22.9974 17.5545 23.4922 16.5761 23.4922H4.02595C3.03633 23.4922 2.50779 22.9974 2.50779 21.9628V11.5268C2.50779 10.5035 3.03633 9.9974 4.02595 9.9974H6.82612V7.48962H3.81228C1.32699 7.48962 0 8.80536 0 11.2682V22.2215C0 24.6955 1.32699 26 3.81228 26Z" fill="black"/>
</svg>
