<svg width="22" height="22" viewBox="0 0 12 12" fill="none" xmlns="http://www.w3.org/2000/svg">
<path d="M3.0713 11.5126L5.90383 9.4427L8.72527 11.5126C9.00237 11.7171 9.25938 11.7426 9.49628 11.5893C9.73328 11.436 9.79344 11.1805 9.67675 10.8227L8.57223 7.50426L11.4594 5.4125C11.6562 5.27377 11.7637 5.11862 11.782 4.94704C11.8002 4.77546 11.751 4.62579 11.6343 4.49802C11.5177 4.37025 11.3464 4.30637 11.1203 4.30637H7.54417L6.48338 1.00987C6.38136 0.681318 6.18632 0.518868 5.89826 0.522521C5.6103 0.526166 5.4153 0.688616 5.31328 1.00987L4.25241 4.30637H0.665333C0.439315 4.30637 0.26798 4.37025 0.151328 4.49802C0.0346751 4.62579 -0.0145355 4.77546 0.00369656 4.94704C0.0219195 5.11862 0.129456 5.27377 0.326306 5.4125L3.23534 7.50426L2.11984 10.8227C1.9959 11.1805 2.05423 11.436 2.29482 11.5893C2.53542 11.7426 2.79425 11.7171 3.0713 11.5126Z" fill="#FF9500" fill-opacity="0.85"/>
</svg>
