<svg width="28" height="28" viewBox="0 0 28 28" fill="none" xmlns="http://www.w3.org/2000/svg">
<path d="M3.00093 25.1121H17.6121C19.6291 25.1121 20.6034 24.4777 20.6034 23.1021C20.6034 19.8947 16.6013 15.5883 10.3076 15.5883C4.01179 15.5883 0 19.8947 0 23.1021C0 24.4777 0.974295 25.1121 3.00093 25.1121ZM2.61139 23.0874C2.33413 23.0874 2.2221 23.0032 2.2221 22.7845C2.2221 20.9892 5.12483 17.6131 10.3076 17.6131C15.4882 17.6131 18.3813 20.9892 18.3813 22.7845C18.3813 23.0032 18.2789 23.0874 18.0016 23.0874H2.61139ZM10.3076 14.0829C13.1388 14.0829 15.4334 11.5817 15.4334 8.51603C15.4334 5.49822 13.1496 3.08884 10.3076 3.08884C7.49226 3.08884 5.17758 5.52915 5.17969 8.53525C5.19141 11.5913 7.48383 14.0829 10.3076 14.0829ZM10.3076 12.0581C8.68523 12.0581 7.30265 10.5124 7.30265 8.53314C7.30054 6.60798 8.67234 5.1136 10.3076 5.1136C11.962 5.1136 13.3104 6.58665 13.3104 8.51603C13.3104 10.489 11.9491 12.0581 10.3076 12.0581Z" fill="black"/>
<path d="M19.0998 13.7149C19.5835 14.0351 20.2452 13.9277 20.5941 13.4138C21.5366 12.1563 22.0988 10.3681 22.0988 8.51603C22.0988 6.664 21.5366 4.88533 20.5941 3.61408C20.2452 3.10432 19.5835 2.99487 19.0998 3.31713C18.5286 3.69166 18.4267 4.38095 18.8722 5.03649C19.5299 5.95712 19.888 7.20938 19.888 8.51603C19.888 9.82267 19.5203 11.0632 18.8722 11.9956C18.4363 12.6586 18.5286 13.3308 19.0998 13.7149Z" fill="black"/>
<path d="M23.7731 16.8473C24.2995 17.1825 24.9483 17.0538 25.3132 16.522C26.8385 14.3667 27.7237 11.4823 27.7237 8.51603C27.7237 5.54978 26.8481 2.64611 25.3132 0.507911C24.9483 -0.0217732 24.2995 -0.150444 23.7731 0.184711C23.231 0.532521 23.1426 1.2183 23.5575 1.82532C24.8053 3.64478 25.515 6.04103 25.515 8.51603C25.515 10.991 24.7861 13.3756 23.5575 15.2046C23.1522 15.8138 23.231 16.4995 23.7731 16.8473Z" fill="black"/>
</svg>
