<svg width="28" height="21" viewBox="0 0 28 21" fill="none" xmlns="http://www.w3.org/2000/svg">
<path d="M4.88367 16.5633C4.19437 16.5633 3.73523 16.0945 3.73523 15.4383V13.2703C3.73523 12.6044 4.19437 12.1453 4.88367 12.1453H7.75687C8.44617 12.1453 8.90531 12.6044 8.90531 13.2703V15.4383C8.90531 16.0945 8.44617 16.5633 7.75687 16.5633H4.88367ZM0 7.6139V4.87359H27.7268V7.6139H0ZM3.84421 20.2889H23.8826C26.4237 20.2889 27.7268 18.9933 27.7268 16.4927V3.81749C27.7268 1.31695 26.4237 0.0117188 23.8826 0.0117188H3.84421C1.31484 0.0117188 0 1.31695 0 3.81749V16.4927C0 18.9933 1.31484 20.2889 3.84421 20.2889Z" fill="black"/>
</svg>
